<?xml version="1.0" encoding="utf-8"?>
<!-- Generator: Adobe Illustrator 24.3.0, SVG Export Plug-In . SVG Version: 6.00 Build 0)  -->
<svg version="1.1" id="Layer_1" xmlns="http://www.w3.org/2000/svg" xmlns:xlink="http://www.w3.org/1999/xlink" x="0px" y="0px"
	 width="512.1px" height="292.6px" viewBox="0 0 512.1 292.6" style="enable-background:new 0 0 512.1 292.6;" xml:space="preserve"
	>
<style type="text/css">
	.st0{fill:#0054A5;}
	.st1{clip-path:url(#SVGID_2_);fill:url(#SVGID_3_);}
	.st2{fill:#F1BE00;}
	.st3{fill:none;}
	.st4{clip-path:url(#SVGID_5_);fill:url(#SVGID_6_);}
	.st5{clip-path:url(#SVGID_8_);fill:url(#SVGID_9_);}
	.st6{clip-path:url(#SVGID_11_);fill:url(#SVGID_12_);}
	.st7{clip-path:url(#SVGID_14_);fill:url(#SVGID_15_);}
	.st8{clip-path:url(#SVGID_17_);fill:url(#SVGID_18_);}
	.st9{clip-path:url(#SVGID_20_);fill:url(#SVGID_21_);}
	.st10{clip-path:url(#SVGID_23_);fill:url(#SVGID_24_);}
	.st11{clip-path:url(#SVGID_26_);fill:url(#SVGID_27_);}
</style>
<g>
	<g>
		<path class="st0" d="M118.3,138.2V60.7h-22v77.5c-0.5,26.2,16.7,32.8,40.9,31.4c0-1,0-16.3,0-16.5
			C126.9,152.4,117.9,153,118.3,138.2z"/>
		<g>
			<path class="st0" d="M433.1,227.9c0-2.7-1.6-4.3-4.3-4.4c-1.9,0-3.5,0.7-4.6,2.4c-1.8-3.2-6.1-3.1-8.1-0.3
				c-0.2-0.6,0-1.2-0.2-1.7h-4v14.9h4.2c0.2-0.4,0.1-0.7,0.1-1.1c0-2.5,0-5,0-7.6c0-0.6,0-1.3,0.3-1.9c0.3-0.9,1.1-1.2,2.1-1.1
				c0.9,0.1,1.4,0.6,1.5,1.5c0.1,0.4,0.1,0.9,0.1,1.4c0,2.6,0,5.2,0,7.8c0,0.3-0.1,0.7,0.2,1h4.2c0-2.7,0-5.5,0-8.2
				c0-0.6,0-1.3,0.2-1.9c0.3-1.1,1.1-1.7,2.3-1.6c1.1,0.1,1.6,0.6,1.6,1.9c0,2.8,0,5.7,0,8.5c0,0.4-0.1,0.8,0.1,1.2h4.2
				c0.2-0.3,0.1-0.6,0.1-0.8C433.1,234.6,433.1,231.3,433.1,227.9z"/>
			<path class="st0" d="M442.9,223.7c-1.1,0.3-1.9,1.1-2.6,2.1c-0.2-0.7,0.1-1.3-0.2-1.9h-4v19.8h4.4v-6.1c0.8,0.6,1.5,1.1,2.4,1.3
				c2.5,0.5,4.8-0.5,5.8-2.9c1.3-3,1.4-6,0.3-9.1C448.1,224.2,445.6,223,442.9,223.7z M444.7,234.5c-0.3,1.1-1.1,1.5-2,1.5
				c-1-0.1-1.9-0.8-2-1.9c-0.1-0.9-0.1-1.8-0.1-2.7c0,0,0.1,0,0.1,0c0-0.7,0-1.5,0-2.2c0-0.5,0.2-0.9,0.4-1.3
				c0.4-0.8,1.1-1.2,1.9-1.2c0.9,0,1.5,0.6,1.8,1.4C445.4,230.2,445.4,232.3,444.7,234.5z"/>
			<path class="st0" d="M466.6,223.9c-3.1,1-4.4,3.4-4.8,6.5c-0.7,5.5,3.4,9.5,8.8,8.6c2.6-0.4,4.9-2.6,5.3-5
				c-1.3-0.3-2.6-0.2-3.9-0.4c-0.7,1.9-2.1,2.8-3.7,2.2c-1.4-0.5-2.2-2.1-1.7-3.8h9.3c0.2-0.6,0.1-1.2,0-1.7
				C475.6,225.4,471.2,222.3,466.6,223.9z M466.5,229.5c0-1.8,1-3,2.5-3.1c1.5-0.1,2.4,0.9,2.6,3.1H466.5z"/>
			<path class="st0" d="M494.3,225.8c-2.3,2.7-2.6,5.8-1.4,9c1.1,2.9,3.4,4.1,6.4,4.4c3.3,0.3,6.5-2,7.2-5.2c-1.3-0.3-2.6-0.2-4-0.4
				c-0.6,1.9-1.9,2.7-3.6,2.3c-1.5-0.4-2.3-2-1.8-3.8h9.4c0.1-2.1-0.2-4.1-1.4-5.8C502.7,222.8,497.1,222.5,494.3,225.8z
				 M497.2,229.5c-0.1-1.6,0.9-2.9,2.4-3.1c1.6-0.2,2.5,0.8,2.7,3.1H497.2z"/>
			<path class="st0" d="M487.3,229.6c-0.4-0.1-0.9-0.2-1.3-0.3c-1.1-0.2-2.3-0.2-3.4-0.6c-0.5-0.2-0.9-0.5-0.9-1
				c0-0.6,0.4-0.9,0.9-1.1c0.3-0.1,0.6-0.2,0.8-0.2c1.6-0.2,2.9,0.3,3.4,2c1.1-0.3,2.1-0.6,3.2-0.9c-0.6-1.8-1.6-3-3.3-3.6
				c-2.1-0.7-4.3-0.5-6.3,0.4c-1.9,0.8-2.8,2.6-2.7,4.6c0.2,1.9,1.4,3.3,3.4,3.9c0.6,0.2,1.2,0.3,1.9,0.4c0.9,0.2,1.8,0.3,2.7,0.4
				c0.5,0.1,0.9,0.3,1.1,0.9c0.1,0.5-0.1,0.8-0.5,1.1c-1.1,0.8-4.4,0.9-5.2-1c-0.1-0.2-0.1-0.5-0.4-0.4c-1.2,0.2-2.3,0.3-3.5,0.5
				c0.5,1.7,1.2,2.8,2.5,3.5c2.9,1.4,5.9,1.5,8.7,0c1.9-1,2.5-2.8,2.3-4.8C490.4,231.2,489.2,230.1,487.3,229.6z"/>
			<rect x="403.5" y="218.6" class="st0" width="4.6" height="20.1"/>
			<path class="st0" d="M456.2,226v-2.1h-4v14.9h4.4c0-2.3,0-4.4,0-6.6c0-2.9,0.9-3.9,3.6-4.4v-4.2C458,223.1,457.1,224.4,456.2,226
				z"/>
			<path class="st0" d="M509.4,195.8c-1.7-0.6-3.5-0.6-5.2-0.2c-4.8,1-8.4,3.7-10.8,7.9c-0.9,1.6-1.9,3-3.2,4.4
				c-0.9,1-1.9,2-3.3,2.4c-1,0.3-1.5-0.2-1.3-1.2c0.1-0.6,0.4-1.2,0.7-1.7c1.7-2.9,3.5-5.9,5.2-8.8c0.2-0.4,0.5-0.6,1-0.5
				c0.4,0,0.9,0,1.3,0c0.1,0,0.3,0,0.4-0.2c0.4-0.7,0.8-1.3,1.2-2h-2.3c1.5-2.6,3-5,4.5-7.6c-0.1,0-0.2,0-0.2,0c-2,0.4-4,0.8-6,1.1
				c-0.3,0.1-0.4,0.2-0.5,0.4c-0.9,1.6-2,3.1-2.8,4.7c-0.5,1-1.2,1.6-2.4,1.3c-0.2,0-0.4-0.1-0.5,0.1c-0.4,0.6-0.8,1.3-1.2,2h1.9
				c-0.8,1.4-1.6,2.6-2.3,3.9c-1.2,2.1-2.4,4.2-4.1,5.9c-0.8,0.8-1.6,1.7-2.7,2.3c-0.4,0.2-0.8,0.3-1.1,0c-0.4-0.3-0.3-0.7-0.2-1.1
				c0.2-0.7,0.5-1.3,0.8-1.8c2.1-3.6,4.2-7.1,6.3-10.7c0.1-0.2,0.3-0.4,0.3-0.6c-1.8,0-3.6,0-5.3,0c-0.2,0-0.3,0.1-0.5,0.3
				c-0.4,0.5-0.8,1.1-1.3,1.7c0-1.5-0.9-2-2.1-2.3c-1.4-0.3-2.7-0.1-4.1,0.3c-4.2,1.4-7.2,4.2-9.4,8.1c-1.1,1.9-2.4,3.6-4,5.1
				c-0.5,0.5-1,1-1.7,1.3c-0.4,0.2-0.7,0.3-1.1,0c-0.3-0.3-0.2-0.7,0-1c0.1-0.2,0.2-0.5,0.4-0.7c1.5-2.6,3-5.1,4.5-7.7
				c0.5-0.8,0.8-1.6,0.9-2.5c0.2-1.3-0.5-2.4-1.8-2.7c-0.9-0.2-1.7-0.2-2.6-0.1c-1.6,0.3-3,1.1-4.3,2l-0.9,0.6c0,0,0-0.1-0.1-0.1
				c0.4-0.7,0.8-1.4,1.2-2.1c-1.7,0-3.3,0-4.9,0c-0.4,0-0.6,0.1-0.8,0.4c-1.7,2.8-3.3,5.7-5.1,8.5c-1.1,1.5-2.2,3-3.5,4.3
				c-0.5,0.5-1,0.9-1.6,1.2c-0.3,0.1-0.7,0.2-1-0.1c-0.3-0.2-0.2-0.6-0.2-0.9c0.2-0.8,0.5-1.4,0.9-2.1c1.9-3.3,3.9-6.6,5.8-9.9
				c0.3-0.4,0.5-0.9,0.8-1.4c-1.7,0-3.4,0-5,0c-0.5,0-0.8,0.1-1.1,0.5c-0.3,0.5-0.7,0.9-1.1,1.5c0-1.6-1-2.1-2.2-2.3
				c-1.2-0.3-2.4-0.1-3.6,0.2c-4.5,1.4-7.7,4.4-9.9,8.5c-1,1.8-2.2,3.4-3.6,4.8c-0.5,0.5-1,0.9-1.7,1.2c-0.8,0.3-1.3-0.2-1.2-1
				c0.1-0.4,0.2-0.8,0.4-1.1c1.3-2.2,2.6-4.4,3.8-6.6c1.1-1.9,2.2-3.7,3.4-5.7c-1.9,0-3.7,0-5.6,0c-0.2,0-0.3,0.1-0.4,0.3
				c-2.3,3.8-4.6,7.6-6.8,11.4c-0.8,1.5-1.3,3.1-1.3,4.8c0,1.1,0.6,1.7,1.6,1.9c0.6,0.1,1.1,0,1.7-0.1c2.2-0.5,3.9-1.7,5.6-3
				c0.8-0.6,1.4-1.3,2.2-2c-0.1,0.6-0.1,1.2,0,1.7c0.2,1.7,1.2,2.9,2.9,3.3c0.8,0.2,1.6,0.2,2.3,0c2-0.4,3.5-1.6,5-2.8
				c0.1-0.1,0.2-0.3,0.5-0.3c0,0.2,0,0.4,0,0.6c0.1,2.1,1.2,2.9,3.2,2.6c1.4-0.2,2.6-0.8,3.7-1.6c0.4-0.3,0.9-0.6,1.3-0.9
				c0,0,0,0,0.1,0.1c-0.4,0.6-0.7,1.3-1.2,2c2,0,3.8,0,5.6,0c0.4,0,0.6-0.1,0.8-0.4c1.2-2.1,2.5-4.2,3.7-6.3c1.2-1.9,2.2-4,3.7-5.7
				c0.6-0.8,1.3-1.5,2.2-2c0.4-0.2,0.8-0.3,1.1,0s0.4,0.7,0.3,1.1c-0.1,0.3-0.2,0.7-0.4,1c-1.1,2.3-2.4,4.6-3.6,6.8
				c-0.5,1-1,2-1.1,3.2c-0.2,1.7,0.8,2.8,2.5,2.8c0.9,0,1.8-0.2,2.7-0.6c1.9-0.8,3.4-2,4.9-3.3c0.4-0.3,0.7-0.7,1.2-1.1
				c0,0.8,0,1.5,0.1,2.1c0.6,2.2,2.6,3.3,5,2.8c1.8-0.4,3.2-1.3,4.6-2.4c0.3-0.2,0.6-0.5,0.9-0.7c0.2,0.2,0.1,0.5,0.1,0.7
				c0.1,2,1.1,2.8,3.1,2.6c1.7-0.2,3.1-1.1,4.4-2c0.9-0.6,1.6-1.3,2.5-2.1c-0.2,0.7-0.2,1.2-0.2,1.7c0.1,1.3,0.9,2.3,2.2,2.5
				c0.9,0.2,1.8,0,2.7-0.3c2.2-0.7,4.1-2.1,5.8-3.6c0.5-0.5,0.9-1,1.4-1.5c0.1,0.2,0.1,0.3,0.1,0.4c0,2.5,1.3,4.2,3.7,4.8
				c2.5,0.6,4.9,0.3,7.2-0.7c3.8-1.7,6.6-4.5,8.3-8.3c0.8-1.7,1.2-3.5,1.2-5.4C512,197.8,511.1,196.4,509.4,195.8z M432.5,201.4
				c-1.5,3.1-3.4,6.1-5.7,8.6c-0.5,0.5-1,1-1.7,1.3c-1.3,0.7-2.5,0-2.5-1.7c0.1-0.9,0.5-1.8,1-2.7c1.3-2.6,2.9-5,4.9-7.1
				c0.9-0.9,1.8-1.6,3-1.9c1.1-0.3,1.6,0.1,1.6,1.3C433.1,200,432.8,200.7,432.5,201.4z M474.6,199.3c-0.1,1.2-0.7,2.2-1.2,3.2
				c-1.4,2.7-3,5.2-5.1,7.5c-0.5,0.6-1.1,1.1-1.7,1.4c-1.4,0.8-2.5,0.1-2.5-1.5c0-0.8,0.3-1.6,0.7-2.3c1.4-3,3.2-5.8,5.6-8
				c0.8-0.7,1.6-1.3,2.7-1.6C474.2,197.6,474.8,198.1,474.6,199.3z M507.9,198.7c-0.2,1.7-0.8,3.3-1.5,4.8c-1.2,2.6-2.6,5-4.5,7.1
				c-0.5,0.5-1,1-1.7,1.4c-1.4,0.7-3.1,0.1-3.4-1.3c0-0.2,0-0.4-0.1-0.6c0-1.1,0.4-2,0.8-2.9c1.4-3.4,3.6-6.3,6.4-8.7
				c0.7-0.6,1.5-1.1,2.5-1.3C507.3,197.1,508,197.7,507.9,198.7z"/>
			<path class="st0" d="M332,198c0.7,0,1.5,0,2.2,0c0.2,0,0.3,0.1,0.4-0.1c0.4-0.7,0.8-1.3,1.2-2.1h-2.9c0.1-0.2,0.2-0.3,0.2-0.4
				c1.5-2.4,3-4.8,4.6-7.2c1.2-1.8,2.4-3.6,4.1-5c0.6-0.6,1.3-1.1,2.2-1.2c0.5-0.1,0.6,0.1,0.5,0.6c-0.2,0.6-0.5,1.2-0.9,1.7
				c-1.2,1.6-2.7,2.8-4.3,3.9c-1.6,1.1-2.5,2.7-3.3,4.4c0,0,0,0.1,0,0.1c-0.1,0.4,0,0.5,0.4,0.5c0.6-0.1,1.2-0.2,1.7-0.5
				c2.6-1.3,4.7-3.4,6.5-5.6c0.9-1.2,1.8-2.5,2.2-4c0.5-1.8-0.3-3-2.2-3c-1.7-0.1-3.3,0.4-4.8,1.2c-2.9,1.6-5.1,4-7.1,6.5
				c-1.8,2.3-3.2,4.9-4.9,7.2c-0.4,0.6-0.8,0.9-1.5,0.8c-0.3-0.1-0.6,0-0.9,0c-0.2,0-0.3,0-0.4,0.2c-0.4,0.6-0.8,1.3-1.2,2h2.1
				c-1.3,2.2-2.5,4.3-3.8,6.4c-0.2,0.4-0.5,0.8-0.8,1.2c-1.2,1.6-2.5,3.1-4.2,4.2c-0.4,0.3-0.9,0.6-1.4,0.6
				c-0.6,0.1-0.9-0.3-0.8-0.8c0-0.3,0.2-0.6,0.4-0.9c1.4-2.4,2.8-4.8,4.2-7.2c0.5-0.9,1.1-1.8,1.3-2.9c0.4-1.7-0.5-2.9-2.1-3.2
				c-0.8-0.1-1.5-0.1-2.2,0c-1.7,0.4-3.2,1.3-4.7,2.2c-0.1,0.1-0.3,0.3-0.5,0.2c0.4-0.7,0.8-1.4,1.2-2.1c-1.7,0-3.3,0-4.9,0
				c-0.4,0-0.6,0.1-0.8,0.4c-1.7,2.9-3.5,5.8-5.2,8.7c-0.8,1.3-2,1.5-3.5,1.8c0.2-0.3,0.2-0.4,0.3-0.5c1-1.8,1.6-3.6,1.8-5.6
				c0.3-2.8-1.1-4.6-3.8-5.1c-1.4-0.3-2.8-0.2-4.1,0.1c-6,1.4-9.9,5.1-12,10.8c-0.1,0.3-0.2,0.5-0.4,0.7c-0.9,0.7-1.7,1.4-2.7,1.9
				c-2.3,1.4-4.8,2.3-7.6,1.9c-2.6-0.3-4.2-1.9-4.6-4.4c-0.3-2,0.2-4,0.8-5.8c1.5-4.2,3.9-7.9,6.8-11.2c2.1-2.3,4.4-4.4,7.2-5.8
				c1.5-0.8,3-1.3,4.7-1.3c0.6,0,1,0.3,1.2,1c0.1,0.3,0.1,0.7,0.1,1c-0.2,1.3-0.6,2.5-1.3,3.6c-3.2,5.2-7.8,8.3-14,8.5
				c-0.2,0-0.4,0-0.5,0.2c-0.4,0.6-0.8,1.1-1,1.8c-0.2,0.6,0,0.9,0.6,0.9c1.2,0,2.4-0.1,3.6-0.3c5.8-0.9,10.7-3.7,14.5-8.1
				c1.3-1.5,2.6-3.2,3-5.2c0.6-2.4-0.2-4.1-2.2-5c-0.3-0.1-0.7-0.3-1-0.4c-3.1-0.8-6.1-0.6-9.1,0.4c-8.4,2.8-14.7,8.2-18.6,16.2
				c-1.6,3.3-2.5,6.8-2.1,10.5c0.3,3,1.8,5.2,4.7,6.3c2.5,1,5.2,1,7.8,0.6c3.3-0.6,6.2-2.1,8.8-4.2c0.2-0.2,0.4-0.4,0.7-0.5
				c0.2,2.1,1.4,3.5,3.3,4.1c1.7,0.5,3.4,0.5,5.1,0.2c3-0.6,5.4-2.1,7.4-4.2c0.5-0.5,1-0.9,1.7-0.8c0.6,0,1.3-0.2,2-0.4
				c-1,1.8-2,3.5-3.1,5.2c2,0,4,0,5.9,0c0.3,0,0.4-0.2,0.5-0.4c1.4-2.4,2.8-4.7,4.2-7.1c1.2-1.9,2.2-4,3.8-5.6c0.5-0.5,1-1,1.7-1.3
				c0.9-0.4,1.5,0,1.4,1c0,0.4-0.2,0.8-0.4,1.2c-1.1,2.3-2.4,4.6-3.6,6.9c-0.5,0.9-0.9,1.8-1,2.8c-0.3,1.7,0.5,2.9,2.1,3
				c1.4,0.1,2.8-0.3,4.1-0.9c0.9-0.4,1.8-1,2.7-1.5c-2.8,4.7-5.6,9.5-8.5,14.3c0.2,0,0.4,0,0.5,0c1.6,0,3.2,0,4.8,0
				c0.4,0,0.5-0.1,0.7-0.4c2.9-4.9,5.8-9.7,8.7-14.6c2.5-4.3,5.1-8.5,7.6-12.8C331.5,198.1,331.7,198,332,198z M295,201.9
				c-1.2,3.2-2.9,6.2-5.3,8.8c-0.5,0.5-1,1-1.7,1.3c-0.7,0.3-1.3,0.3-2,0.1c-0.9-0.3-1.5-1.2-1.4-2.2c0.2-1.5,0.8-2.9,1.5-4.3
				c1.4-2.6,3.2-5,5.4-6.9c0.7-0.6,1.5-1.2,2.5-1.4c1.1-0.3,1.8,0.2,1.8,1.5C295.7,199.8,295.4,200.8,295,201.9z"/>
			<path class="st0" d="M410.9,195.9c-0.1,0-0.2,0-0.3,0c-1.7,0-3.5,0-5.2,0c-0.3,0-0.4,0.1-0.5,0.3c-0.3,0.6-0.6,1.1-1,1.8
				c-0.9-2.1-2-2.7-4.1-2.6c-1.9,0.2-3.5,0.8-5.1,1.8c-2.6,1.7-4.6,4-6.1,6.7c-1.2,2-2.6,3.8-4.2,5.4c-0.4,0.3-0.7,0.6-1.2,0.8
				c-0.4,0.2-0.8,0.2-1.1-0.1c-0.3-0.3-0.3-0.6-0.2-1c0.1-0.4,0.2-0.7,0.4-1c1.8-3.1,3.6-6.1,5.4-9.2c0.6-1,1.2-2,1.8-3
				c-0.1,0-0.2,0-0.2,0c-1.7,0-3.5,0-5.3,0c-0.3,0-0.4,0.2-0.5,0.4c-1.1,1.9-2.3,3.9-3.5,5.8c-1.3,2.2-2.6,4.4-4.4,6.2
				c-0.9,0.9-1.8,1.7-3,2.1c-0.9,0.2-1.4-0.2-1.2-1.1c0.1-0.6,0.4-1.1,0.6-1.6c1.4-2.7,3.1-5.3,4.6-7.9c0.3-0.6,0.6-1.3,1-1.6
				c0.5-0.3,1.2-0.1,1.8-0.1c0.1,0,0.3,0.1,0.4-0.1c0.4-0.7,0.8-1.3,1.3-2.1h-2.3c1.5-2.6,3-5,4.5-7.6c-0.1,0-0.2,0-0.3,0
				c-2,0.4-4,0.8-6,1.2c-0.2,0-0.3,0.2-0.4,0.3c-0.9,1.6-1.9,3.1-2.8,4.7c-0.5,1-1.2,1.7-2.4,1.4c-0.2,0-0.4,0-0.5,0.2
				c-0.4,0.6-0.8,1.3-1.2,2h1.9c0,0.1,0,0.2-0.1,0.2c-1.4,2.3-2.7,4.7-4.2,6.9c-1.2,1.7-2.5,3.4-4.2,4.7c-0.3,0.3-0.7,0.5-1.2,0.5
				c-0.6,0-0.9-0.3-0.7-0.9c0.1-0.7,0.5-1.2,0.9-1.8c1.2-1.8,2.4-3.6,3.4-5.5c0.7-1.3,1.3-2.6,1.5-4.1c0.2-1.2-0.2-2-1.1-2.4
				c-0.9-0.4-1.7-0.4-2.6-0.2c-0.6,0.2-1.2,0.2-1.8,0.1c-0.9-0.1-1.2-0.7-1-1.5c0.1-0.4,0.3-0.8,0.4-1.3h-1.5H358
				c0,0.1-0.1,0.1-0.1,0.2c0,0.1-0.1,0.2-0.1,0.4c-1.9,5.6-4.6,10.7-8.6,15.1c-0.6,0.6-1.2,1.2-1.9,1.7c-0.3,0.2-0.6,0.3-0.9,0.1
				c-0.3-0.2-0.3-0.5-0.2-0.9c0.2-0.9,0.6-1.7,1.1-2.5c1.6-2.8,3.3-5.6,4.9-8.4c0.5-0.9,1-1.7,1.5-2.6c-0.1,0-0.1-0.1-0.2-0.1
				c-1.7,0-3.4,0-5.2,0c-0.3,0-0.4,0.2-0.6,0.3c-0.4,0.5-0.7,1-1.1,1.6c-0.5-1.6-1.1-2.1-2.7-2.3c-1.3-0.1-2.5,0.1-3.7,0.5
				c-4.1,1.5-7.1,4.4-9.2,8.2c-1.1,2-1.9,4.1-1.7,6.4c0.1,0.9,0.3,1.8,1,2.5c1.2,1.2,2.6,1.4,4.2,1.1c1.9-0.4,3.4-1.4,4.8-2.6
				c0.2-0.2,0.4-0.4,0.7-0.5c0,0.4,0.1,0.7,0.1,1.1c0.2,1.5,1,2.2,2.4,2.2c1.5,0,2.9-0.4,4.2-1.2c2.5-1.5,4.4-3.6,6.2-5.9
				c2.1-2.8,3.8-5.8,5.4-8.9c0.1-0.2,0.1-0.5,0.4-0.5c0.5,0,0.9,0,1.4,0c0.7,0.1,1,0.5,0.9,1.3c-0.1,0.7-0.5,1.3-0.9,1.9
				c-1.1,1.8-2.5,3.5-3.5,5.3c-0.8,1.4-1.5,2.9-1.8,4.6c-0.3,2.1,1,3.5,3.1,3.3c1.5-0.1,2.9-0.6,4.2-1.4c1-0.6,2-1.3,2.9-2.2v0.6
				c0,1.9,1.1,3,3,2.9c1.4,0,2.7-0.5,3.9-1.1c1.3-0.7,2.4-1.5,3.6-2.5c-0.1,0.6-0.2,1.1-0.2,1.7c0.1,1.2,0.6,1.8,1.8,1.9
				c0.6,0.1,1.2,0,1.8-0.1c2.6-0.5,4.7-1.9,6.6-3.7c0.3-0.3,0.7-0.6,1-1c0,0.6,0,1,0,1.4c0.1,1.7,1.2,3,2.9,3.3c1,0.2,2,0.1,3-0.3
				c0.8-0.3,1.6-0.8,2.4-1.1c0.1,0.2-0.1,0.3-0.2,0.5c-0.9,1.5-1.8,3.1-2.7,4.6c-1.4,2.2-2.8,4.5-4.6,6.4c-0.8,0.8-1.6,1.6-2.7,1.8
				c-0.6,0.1-0.7,0-0.5-0.6c0.2-0.6,0.4-1.1,0.8-1.6c1.2-1.7,2.7-3,4.5-4c0.3-0.2,0.5-0.3,0.7-0.6c0.7-0.9,1.4-1.8,2-2.7
				c0.2-0.4,0.5-0.8,0.6-1.2c0.1-0.4-0.1-0.5-0.4-0.5c-0.7,0.1-1.4,0.3-2,0.6c-3.3,1.9-5.8,4.6-7.7,7.8c-0.4,0.7-0.7,1.4-0.8,2.2
				c-0.2,1.2,0.4,2,1.6,2.3c0.7,0.2,1.4,0.2,2.1,0.1c2.1-0.3,3.9-1.3,5.6-2.5c2.9-2.2,5.2-5,7-8.1c3.6-5.9,7.1-11.9,10.7-17.8
				C409.5,198.2,410.2,197.1,410.9,195.9z M344.5,201.3c-1.6,3.3-3.5,6.4-6.1,9c-0.4,0.5-0.9,0.8-1.5,1.1c-1.2,0.6-2.2-0.1-2.3-1.4
				c0-0.4,0-0.7,0.1-1.1c1.5-4,3.7-7.5,7-10.2c0.6-0.5,1.2-0.8,2-1c1-0.2,1.5,0.2,1.5,1.2C345.1,199.9,344.8,200.6,344.5,201.3z
				 M395,212.8C395,212.8,395,212.8,395,212.8C395,212.8,395,212.8,395,212.8C395,212.8,395,212.8,395,212.8z M401.9,200.7
				c-1.5,3.6-3.5,6.9-6.3,9.7c-0.3,0.3-0.7,0.6-1,0.8c-0.6,0.4-1.3,0.6-2,0.2c-0.6-0.4-0.7-1-0.7-1.7c0-0.7,0.2-1.3,0.4-2
				c1.2-2.9,2.8-5.6,5.1-7.8c1-1,2.2-1.8,3.6-1.9c0.8-0.1,1.1,0.3,1.2,1C402.3,199.6,402.2,200.2,401.9,200.7z"/>
			<path class="st0" d="M259.5,194.9c0.5-0.6,0.8-1.4,1.4-1.9c0.5-0.6,0.5-1.1,0.2-1.7c-1-2.4-0.5-4.5,1.5-6c1.9-1.5,4-2.1,6.4-2.2
				c1.1,0,1.2-0.1,1.1-1.2c0-0.1,0-0.1,0-0.2c0-0.4-0.2-0.6-0.6-0.6c-0.6,0-1.1,0-1.7,0.1c-2.6,0.2-5.1,0.9-7.3,2.5
				c-2,1.5-3.3,3.4-3.3,6c0,2,0.7,3.7,1.7,5.3C259,195.3,259.2,195.3,259.5,194.9z"/>
			<path class="st0" d="M385.8,190c-0.7,2,0.1,3.1,2.2,3.1c2.3,0,4.3-1.5,4.7-3.7c0.2-1.1-0.2-1.9-1.2-2.2
				C389.3,186.5,386.7,187.4,385.8,190z"/>
			<path class="st0" d="M416.4,190.7c-0.2,1.3,0.3,2.1,1.6,2.3c0.3,0.1,0.5,0.1,0.8,0.1c2.4,0,4.4-1.6,4.8-3.9
				c0.2-1-0.3-1.8-1.3-2.1C419.6,186.5,416.9,187.8,416.4,190.7z"/>
			<path class="st0" d="M213.2,98.1c-5.5-5-13.7-7.5-24.7-7.5h-43.3v16.5h35.3c7.2,0,12.1,1,14.9,2.9c2.8,1.9,4.2,5.3,4.2,10v2
				h-27.8c-11.4,0-19.6,2-24.5,5.9c-4.9,4-7.4,10.5-7.4,19.6c0,7.3,2.1,13,6.4,17c4.3,4,10.4,6,18.3,6h56.8v-50.1
				C221.5,110.5,218.8,103.1,213.2,98.1z M199.8,154.4h-26.5c-4.6,0-7.7-0.6-9.2-1.7c-1.5-1.1-2.3-3.1-2.3-5.9c0-3.3,0.9-5.6,2.8-7
				c1.9-1.3,5.3-2,10.2-2h24.9V154.4z"/>
			<path class="st0" d="M418.4,108.1H443v62.4h21.6v-62.4h11.8c5.5,0,9.2,0.9,11,2.8c1.8,1.9,2.7,5.8,2.7,11.6v47.9h21.3v-50.7
				c0-10.3-2.6-17.8-7.8-22.4c-5.2-4.6-13.7-6.9-25.4-6.9h-81v79.9h21.3V108.1z"/>
			<path class="st0" d="M286.5,167.6c4.9-1.9,9-5,12.4-9.4c2.9-3.7,5.1-7.7,6.5-12.1c1.4-4.4,2.1-9.3,2.1-14.6
				c0-12.9-3.4-22.9-10.3-30.1c-6.9-7.2-16.4-10.8-28.7-10.8H228v108.7h21.1v-28.8h18.2C275.2,170.5,281.7,169.5,286.5,167.6z
				 M249.1,153.4v-45.5h14.5c8,0,13.7,1.7,17,5c3.3,3.3,4.9,9,4.9,17.1c0,8.4-1.8,14.4-5.3,18c-3.5,3.6-9.6,5.4-18.1,5.4H249.1z"/>
			<path class="st0" d="M341.2,121.9c-11.4,0-19.6,2-24.5,5.9c-4.9,4-7.4,10.5-7.4,19.6c0,7.3,2.1,13,6.4,17c4.3,4,10.4,6,18.3,6
				h56.8v-50.1c0-9.9-2.8-17.3-8.3-22.3c-5.5-5-13.8-7.5-24.7-7.5h-43.3v16.5h35.3c7.2,0,12.1,1,14.9,2.9c2.8,1.9,4.2,5.3,4.2,10v2
				H341.2z M369.1,137.9v16.5h-26.5c-4.6,0-7.7-0.6-9.2-1.7c-1.5-1.1-2.3-3.1-2.3-5.9c0-3.3,0.9-5.6,2.8-7c1.9-1.3,5.3-2,10.2-2
				H369.1z"/>
		</g>
	</g>
	<g>
		<defs>
			<path id="SVGID_1_" d="M1.6,292.6h509.2v-41.9H1.6V292.6z"/>
		</defs>
		<clipPath id="SVGID_2_">
			<use xlink:href="#SVGID_1_"  style="overflow:visible;"/>
		</clipPath>
		
			<linearGradient id="SVGID_3_" gradientUnits="userSpaceOnUse" x1="-75.3578" y1="562.8016" x2="-65.9739" y2="562.8016" gradientTransform="matrix(54.3417 0 0 -54.3417 4096.6616 30855.2559)">
			<stop  offset="0" style="stop-color:#3D703E"/>
			<stop  offset="1.212120e-02" style="stop-color:#3D703E"/>
			<stop  offset="2.101411e-02" style="stop-color:#447545"/>
			<stop  offset="8.683133e-02" style="stop-color:#759A76"/>
			<stop  offset="0.1543" style="stop-color:#A0B9A0"/>
			<stop  offset="0.2224" style="stop-color:#C2D2C2"/>
			<stop  offset="0.2912" style="stop-color:#DDE6DD"/>
			<stop  offset="0.3612" style="stop-color:#F0F4F0"/>
			<stop  offset="0.4329" style="stop-color:#FBFCFB"/>
			<stop  offset="0.5091" style="stop-color:#FFFFFF"/>
			<stop  offset="0.5716" style="stop-color:#FEFBFB"/>
			<stop  offset="0.6393" style="stop-color:#FBF0EE"/>
			<stop  offset="0.7093" style="stop-color:#F6DDD8"/>
			<stop  offset="0.7811" style="stop-color:#EFC3BA"/>
			<stop  offset="0.8542" style="stop-color:#E6A193"/>
			<stop  offset="0.9273" style="stop-color:#DB7864"/>
			<stop  offset="1" style="stop-color:#CF492D"/>
		</linearGradient>
		<rect x="1.6" y="250.7" class="st1" width="509.2" height="41.9"/>
	</g>
	<g>
		<path class="st0" d="M79,28.8l-9.5,0l-8.2,0L58.8,21l-2.9-9l-2.9,9l-2.5,7.9l-8.2,0l-9.5,0l7.7,5.5l6.7,4.8L44.5,47l-2.9,9
			l7.6-5.6l6.7-4.9l6.7,4.9l7.6,5.6l-2.9-9l-2.6-7.8l6.7-4.8L79,28.8z M62.4,38.5l3,9.1l1.1,3.5l-2.9-2.1l-7.8-5.7l-7.8,5.7
			l-2.9,2.1l1.1-3.5l3-9.1l-7.8-5.6l-2.9-2.1l3.6,0l9.6,0l3-9.2l1.1-3.5l1.1,3.5l3,9.2l9.6,0l3.6,0l-3,2.1L62.4,38.5z"/>
		<path class="st0" d="M123.6,16.8l-9.5,0l-8.2,0L103.3,9l-2.9-9l-2.9,9L95,16.9l-8.2,0l-9.5,0l7.7,5.5l6.7,4.8L89.1,35l-2.9,9
			l7.6-5.6l6.7-4.9l6.7,4.9l7.6,5.6l-2.9-9l-2.6-7.8l6.7-4.8L123.6,16.8z M107,26.5l3,9.1l1.1,3.5l-2.9-2.1l-7.8-5.7l-7.8,5.7
			l-2.9,2.1l1.1-3.5l3-9.1L86,20.8l-2.9-2.1l3.6,0l9.6,0l3-9.1l1.1-3.5l1.1,3.5l3,9.1l9.6,0l3.6,0l-2.9,2.1L107,26.5z"/>
		<path class="st0" d="M168,28.7l-9.5,0l-8.2,0l-2.5-7.8l-2.9-9l-2.9,9l-2.5,7.8l-8.2,0l-9.5,0l7.7,5.5l6.7,4.8l-2.6,7.8l-2.9,9
			l7.6-5.6l6.7-4.9l6.7,4.9l7.6,5.6l-2.9-9l-2.6-7.8l6.7-4.8L168,28.7z M151.5,38.4l3,9.1l1.1,3.5l-2.9-2.1l-7.8-5.7l-7.8,5.7
			l-2.9,2.1l1.1-3.5l3-9.1l-7.8-5.6l-2.9-2.1h3.6l9.6,0l3-9.1l1.1-3.5l1.1,3.5l3,9.1l9.6,0h3.6l-3,2.1L151.5,38.4z"/>
		<path class="st0" d="M167.9,183.1l-9.5,0l-8.2,0l-2.5-7.9l-2.9-9l-2.9,9l-2.5,7.9l-8.2,0l-9.5,0l7.7,5.5l6.7,4.8l-2.6,7.8l-2.9,9
			l7.6-5.6l6.7-4.9l6.7,4.9l7.6,5.6l-2.9-9l-2.6-7.8l6.7-4.8L167.9,183.1z M151.3,192.7l3,9.1l1.1,3.5l-2.9-2.1l-7.8-5.7l-7.8,5.7
			l-2.9,2.1l1.1-3.5l3-9.1l-7.8-5.6l-2.9-2.1l3.6,0l9.6,0l3-9.1l1.1-3.5l1.1,3.5l3,9.1l9.6,0l3.6,0l-3,2.1L151.3,192.7z"/>
		<path class="st0" d="M123.4,195.1l-9.5,0l-8.2,0l-2.5-7.9l-2.9-9l-2.9,9l-2.5,7.9l-8.2,0l-9.5,0l7.7,5.5l6.7,4.8l-2.6,7.8l-2.9,9
			l7.6-5.6l6.7-4.9l6.7,4.9l7.6,5.6l-2.9-9l-2.6-7.8l6.7-4.8L123.4,195.1z M106.9,204.7l3,9.1l1.1,3.5l-2.9-2.1l-7.8-5.7l-7.8,5.7
			l-2.9,2.1l1.1-3.5l3-9.1l-7.8-5.6L83,197l3.6,0l9.6,0l3-9.1l1.1-3.5l1.1,3.5l3,9.1l9.6,0l3.6,0l-3,2.1L106.9,204.7z"/>
		<path class="st0" d="M78.9,183.2l-9.5,0l-8.2,0l-2.5-7.9l-2.9-9l-2.9,9l-2.5,7.9l-8.2,0l-9.5,0l7.7,5.5l6.7,4.8l-2.6,7.8l-2.9,9
			l7.6-5.6l6.7-4.9l6.7,4.9l7.6,5.6l-2.9-9l-2.6-7.8l6.7-4.8L78.9,183.2z M62.3,192.9l3,9.1l1.1,3.5l-2.9-2.1l-7.8-5.7l-7.8,5.7
			l-2.9,2.1l1.1-3.5l3-9.1l-7.8-5.6l-2.9-2.1l3.6,0l9.6,0l3-9.1l1.1-3.5l1.1,3.5l3,9.1l9.6,0l3.6,0l-2.9,2.1L62.3,192.9z"/>
		<path class="st0" d="M46.4,150.4l-9.5,0l-8.2,0l-2.5-7.8l-2.9-9l-2.9,9l-2.5,7.8l-8.2,0l-9.5,0l7.7,5.5l6.7,4.8l-2.6,7.8l-2.9,9
			l7.6-5.6l6.7-4.9l6.7,4.9l7.6,5.6l-2.9-9l-2.6-7.8l6.7-4.8L46.4,150.4z M29.9,160.1l3,9.1l1.1,3.5l-2.9-2.1l-7.8-5.7l-7.8,5.7
			l-2.9,2.1l1.1-3.5l3-9.1l-7.8-5.6L6,152.3l3.6,0l9.6,0l3-9.1l1.1-3.5l1.1,3.5l3,9.1l9.6,0l3.6,0l-3,2.1L29.9,160.1z"/>
		<path class="st0" d="M46.3,61.6l-9.5,0l-8.2,0L26,53.8l-2.9-9l-2.9,9l-2.5,7.9l-8.2,0l-9.4,0l7.7,5.5l6.7,4.8l-2.6,7.8l-2.9,9
			l7.6-5.6l6.7-4.9l6.7,4.9l7.6,5.6l-2.9-9L31.9,72l6.7-4.8L46.3,61.6z M29.7,71.2l3,9.1l1.1,3.5l-2.9-2.1L23.1,76l-7.8,5.7
			l-2.9,2.1l1.1-3.5l3-9.1l-7.8-5.6l-2.9-2.1h3.6l9.6,0l3-9.2l1.1-3.5l1.1,3.5l3,9.2l9.6,0h3.6l-2.9,2.1L29.7,71.2z"/>
		<path class="st0" d="M200.7,60.7l-9.5,0l-8.2,0l-2.5-7.9l0,0l-2.9-9l-2.9,9l-2.5,7.9l-8.2,0l-9.4,0l7.7,5.5l6.7,4.8l-2.6,7.8
			l-2.9,9l7.6-5.6l6.7-4.9l6.7,4.9l7.6,5.6l-2.9-9l-2.6-7.8l6.7-4.8L200.7,60.7z M184.1,70.3l3,9.1l1.1,3.5l-2.9-2.1l-7.8-5.7
			l-7.8,5.7l-2.9,2.1l1.1-3.5l3-9.1l-7.8-5.6l-2.9-2.1h3.6l9.6,0l3-9.2l1.1-3.5l1.1,3.5l3,9.2l9.6,0h3.6l-3,2.1L184.1,70.3z"/>
		<g>
			<path class="st0" d="M21.1,95.2c-9.2,0-16.7,7.5-16.7,16.7c0,9.2,7.5,16.7,16.7,16.7c9.2,0,16.7-7.5,16.7-16.7
				C37.8,102.6,30.4,95.2,21.1,95.2z M21.1,127.2c-8.5,0-15.4-6.9-15.4-15.4c0-8.5,6.9-15.4,15.4-15.4c8.5,0,15.4,6.9,15.4,15.4
				C36.5,120.3,29.6,127.2,21.1,127.2z"/>
			<path class="st0" d="M20.1,108.7c2.5-0.1,4.3,2,4.3,2.1c0-0.2,0.8-1.7,1-2c-3.3-1.4-6.7-2.3-10-0.3c-2.3,1.4-3.4,3.8-3.4,6.5
				c0,5.4,5.8,8,10.4,6.8c1.3-0.3,1.9-0.7,2.8-1.3l0.1-1.3c-1.8,1-3.2,2-5.9,1.8c-2.7-0.5-4.5-2.4-4.5-6.1
				C14.8,111.4,16.7,108.8,20.1,108.7z"/>
			<path class="st0" d="M29.7,108c0-1.4,0-2.2-0.8-3.4c-0.6-0.9-1.4-1.7-2.3-2.2c-1.8-0.9-4.1-1.1-6-0.7c-2.6,0.6-4.9,2.1-6.7,3.1
				v2.8c1.4-1.2,2.7-2,4.1-2.9c4.5-2.9,9.3-2.2,9.3,3.8V122h2.6C29.7,118,29.8,112.2,29.7,108z"/>
		</g>
	</g>
</g>
<polygon class="st2" points="145.8,175.8 148.8,185 158.4,184.9 162.1,184.9 159.1,187.1 151.3,192.7 154.3,201.8 155.4,205.3 
	152.5,203.2 144.7,197.5 137,203.2 134,205.3 135.1,201.8 138.1,192.7 130.3,187.1 127.4,184.9 131,184.9 140.7,185 143.6,175.8 
	144.7,172.4 "/>
<polygon class="st2" points="101.4,187.8 104.4,197 114,197 117.6,197 114.7,199.1 106.9,204.7 109.9,213.9 111,217.3 108.1,215.2 
	100.3,209.5 92.5,215.2 89.6,217.3 90.7,213.9 93.7,204.7 85.9,199.1 83,197 86.6,197 96.2,197 99.2,187.8 100.3,184.4 "/>
<polygon class="st2" points="56.8,176 59.8,185.1 69.4,185.1 73,185.1 70.1,187.2 62.3,192.9 65.3,202 66.4,205.4 63.5,203.3 
	55.7,197.6 47.9,203.3 45,205.4 46.1,202 49.1,192.9 41.3,187.2 38.4,185.1 42,185.1 51.6,185.1 54.6,176 55.7,172.5 "/>
<polygon class="st2" points="24.4,143.2 27.3,152.3 37,152.3 40.6,152.3 37.7,154.5 29.9,160.1 32.9,169.2 34,172.7 31,170.6 
	23.3,164.9 15.5,170.6 12.6,172.7 13.7,169.2 16.7,160.1 8.9,154.5 6,152.3 9.6,152.3 19.2,152.3 22.2,143.2 23.3,139.7 "/>
<polygon class="st2" points="24.3,54.3 27.2,63.5 36.8,63.5 40.5,63.5 37.5,65.6 29.7,71.2 32.7,80.4 33.8,83.8 30.9,81.7 23.1,76 
	15.4,81.7 12.4,83.8 13.6,80.4 16.6,71.2 8.8,65.6 5.8,63.5 9.4,63.5 19.1,63.5 22,54.3 23.1,50.9 "/>
<polygon class="st2" points="57,21.6 59.9,30.8 69.5,30.7 73.2,30.7 70.2,32.9 62.4,38.5 65.4,47.6 66.6,51.1 63.6,48.9 55.9,43.3 
	48.1,48.9 45.1,51.1 46.3,47.6 49.3,38.5 41.5,32.9 38.5,30.7 42.2,30.7 51.8,30.8 54.7,21.6 55.9,18.1 "/>
<polygon class="st2" points="101.5,9.6 100.4,6.1 99.3,9.6 96.4,18.7 86.7,18.7 83.1,18.7 86,20.8 93.8,26.5 90.8,35.6 89.7,39.1 
	92.7,36.9 100.4,31.3 108.2,36.9 111.1,39.1 110,35.6 107,26.5 114.8,20.8 117.8,18.7 114.1,18.7 104.5,18.7 "/>
<polygon class="st2" points="146,21.5 148.9,30.6 158.6,30.6 162.2,30.6 159.2,32.7 151.5,38.4 154.4,47.5 155.6,50.9 152.6,48.8 
	144.9,43.1 137.1,48.8 134.2,50.9 135.3,47.5 138.3,38.4 130.5,32.7 127.5,30.6 131.2,30.6 140.8,30.6 143.7,21.5 144.9,18 "/>
<polygon class="st2" points="178.7,53.4 181.6,62.6 191.3,62.6 194.9,62.6 191.9,64.7 184.1,70.3 187.1,79.5 188.3,82.9 185.3,80.8 
	177.6,75.1 169.8,80.8 166.9,82.9 168,79.5 171,70.3 163.2,64.7 160.2,62.6 163.9,62.6 173.5,62.6 176.4,53.4 177.6,50 "/>
<rect x="204.8" y="271.9" class="st3" width="12.3" height="2.8"/>
<path class="st3" d="M143.3,282.8c-0.8-0.2-1.6-0.7-2.3-1.3c-1.7-1.5-2.6-3.9-2.6-7c0-3.8,1.3-6.5,3.9-8.1c1.4-0.8,3.2-1.2,5.5-1.2
	h5.2v2.8h-4.6c-1.2,0-2.2,0.1-2.9,0.3c-0.7,0.2-1.3,0.5-1.8,1c-0.8,0.7-1.2,1.8-1.5,3.2H153v2.8h-10.8c0,1.6,0.4,2.9,1.2,3.8
	c0.4,0.5,1,0.8,1.6,0.9c0.6,0.2,1.6,0.3,2.7,0.3h5.2v2.8h-6.1C145.4,283.2,144.2,283.1,143.3,282.8"/>
<path class="st3" d="M157.3,265.2h8.3c1.6,0,2.8,0.2,3.8,0.5c0.9,0.3,1.7,0.9,2.3,1.7c0.8,1,1.2,2.7,1.2,5v10.7h-3.6v-10.3
	c0-1.8-0.3-3-0.9-3.8c-0.6-0.7-1.7-1.1-3.3-1.1h-4.2v15.1h-3.5V265.2z"/>
<path class="st3" d="M177.2,265.2h9.2c1.6,0,2.8,0.1,3.7,0.4c0.9,0.3,1.5,0.7,2,1.3c0.4,0.5,0.7,1.1,0.9,1.8
	c0.2,0.7,0.2,1.7,0.2,3.1v11.3h-9.1c-1.7,0-2.8-0.1-3.4-0.2c-1.4-0.3-2.4-0.8-3.1-1.8c-0.7-0.9-1.1-2-1.1-3.5c0-1,0.2-2,0.6-2.8
	c0.4-0.8,0.9-1.5,1.7-1.9c0.9-0.5,2.4-0.8,4.5-0.8h6.4c0-1.8-0.2-3-0.7-3.5c-0.5-0.5-1.6-0.7-3.4-0.7h-8.4V265.2z"/>
<path class="st3" d="M257,282.8c-0.9-0.2-1.6-0.7-2.3-1.3c-1.7-1.5-2.5-3.9-2.5-7c0-3.8,1.3-6.5,3.9-8.1c1.4-0.8,3.2-1.2,5.5-1.2
	h5.2v2.8h-4.6c-1.2,0-2.2,0.1-2.9,0.3c-0.7,0.2-1.3,0.5-1.8,1c-0.8,0.7-1.2,1.8-1.5,3.2h10.7v2.8H256c0,1.6,0.4,2.9,1.2,3.8
	c0.4,0.5,1,0.8,1.6,0.9c0.6,0.2,1.5,0.3,2.7,0.3h5.2v2.8h-6.1C259.1,283.2,257.9,283.1,257,282.8"/>
<path class="st3" d="M275.4,283c-0.7-0.1-1.4-0.4-2.2-0.9c-2.3-1.4-3.5-3.9-3.5-7.5c0-3,0.8-5.4,2.3-7.1c0.8-0.9,1.7-1.5,2.7-1.8
	c1-0.3,2.5-0.5,4.4-0.5h7.4v15.9c0,2.4-0.1,3.9-0.2,4.5c-0.1,0.6-0.3,1.2-0.8,1.6c-0.5,0.6-1.2,1-2.2,1.3c-0.9,0.2-2.3,0.3-4.1,0.3
	h-7.7v-2.8h8.2c1,0,1.7-0.1,2.1-0.2c0.4-0.1,0.6-0.3,0.8-0.6c0.1-0.3,0.2-1,0.2-2.1h-3.8C277.4,283.2,276.1,283.1,275.4,283"/>
<path class="st3" d="M296.1,283c-0.7-0.1-1.4-0.4-2.2-0.9c-2.3-1.4-3.5-3.9-3.5-7.5c0-3,0.8-5.4,2.3-7.1c0.8-0.9,1.7-1.5,2.7-1.8
	c1-0.3,2.5-0.5,4.4-0.5h7.4v15.9c0,2.4-0.1,3.9-0.2,4.5c-0.1,0.6-0.3,1.2-0.8,1.6c-0.5,0.6-1.2,1-2.2,1.3c-0.9,0.2-2.3,0.3-4.1,0.3
	h-7.6v-2.8h8.2c1,0,1.7-0.1,2.1-0.2c0.4-0.1,0.6-0.3,0.8-0.6c0.1-0.3,0.2-1,0.2-2.1h-3.8C298.1,283.2,296.8,283.1,296.1,283"/>
<rect x="312.4" y="265.2" class="st3" width="3.6" height="17.9"/>
<path class="st3" d="M373.1,265.2h15.8c2.2,0,3.7,0.1,4.4,0.2c0.8,0.2,1.5,0.5,2.1,1.1c0.7,0.6,1.1,1.2,1.4,2.1
	c0.3,0.8,0.4,2,0.4,3.5v11.1h-3.6v-11.1c0-1.5-0.3-2.5-0.9-3.1c-0.6-0.6-1.7-0.9-3.2-0.9h-2.8v15.1h-3.6v-15.1h-6.6v15.1h-3.6V265.2
	z"/>
<rect x="402.1" y="265.2" class="st3" width="3.6" height="17.9"/>
<rect x="419.4" y="265.2" class="st3" width="3.6" height="17.9"/>
<path class="st3" d="M427.7,265.2h9.2c1.6,0,2.8,0.1,3.7,0.4c0.8,0.3,1.5,0.7,2,1.3c0.4,0.5,0.7,1.1,0.9,1.8
	c0.2,0.7,0.3,1.7,0.3,3.1v11.3h-9.1c-1.7,0-2.8-0.1-3.4-0.2c-1.4-0.3-2.4-0.8-3.1-1.8c-0.7-0.9-1.1-2-1.1-3.5c0-1,0.2-2,0.6-2.8
	c0.4-0.8,0.9-1.5,1.7-1.9c0.9-0.5,2.4-0.8,4.5-0.8h6.4c0-1.8-0.2-3-0.7-3.5c-0.5-0.5-1.6-0.7-3.4-0.7h-8.4V265.2z"/>
<path class="st3" d="M99.1,280.8c-1.4-1.5-2.1-3.6-2.1-6.3c0-2.9,0.8-5.1,2.3-6.9c1.5-1.7,3.9-2.6,7-2.6c2.9,0,5.1,0.8,6.7,2.5
	c1.5,1.5,2.2,3.8,2.2,6.8c0,2.8-0.8,4.9-2.3,6.5c-1.6,1.7-3.9,2.5-6.9,2.5C103.1,283.4,100.7,282.5,99.1,280.8"/>
<path class="st3" d="M321.9,280.8c-1.4-1.5-2.1-3.6-2.1-6.3c0-2.9,0.8-5.1,2.3-6.9c1.5-1.7,3.9-2.6,7-2.6c2.9,0,5.1,0.8,6.7,2.5
	c1.5,1.5,2.2,3.8,2.2,6.8c0,2.8-0.8,4.9-2.3,6.5c-1.6,1.7-3.9,2.5-6.9,2.5C325.8,283.4,323.5,282.5,321.9,280.8"/>
<path class="st3" d="M228.9,258.6h11.2c3.2,0,5.5,0.4,6.8,1.3c0.9,0.6,1.5,1.4,2,2.3c0.5,1,0.7,2,0.7,3.2c0,2.1-0.7,3.8-2,4.9
	c-0.8,0.6-1.8,1.1-3,1.5c1.7,0.7,2.8,1.6,3.4,2.6c0.6,1,1,2.7,1.1,5c0.1,1.5,0.2,2.4,0.2,2.7c0.1,0.3,0.2,0.6,0.4,1h-4
	c-0.1-0.3-0.2-0.5-0.3-0.8c0-0.3-0.1-1.2-0.3-2.7c-0.2-2.6-1-4.4-2.2-5.4c-1.2-1-3.3-1.5-6.2-1.5h-3.9v10.4h-3.9V258.6z"/>
<rect x="312.4" y="258.6" class="st3" width="3.6" height="3.7"/>
<rect x="402.1" y="258.6" class="st3" width="3.6" height="3.7"/>
<rect x="410.7" y="258.6" class="st3" width="3.6" height="24.5"/>
<rect x="419.4" y="258.6" class="st3" width="3.6" height="3.7"/>
<polygon class="st3" points="87.3,258.6 93.1,258.6 93.1,283.2 89.3,283.2 89.3,262.3 81.7,283.2 77.8,283.2 69.9,262.3 69.9,283.2 
	66.1,283.2 66.1,258.6 71.8,258.6 79.9,278.6 "/>
<path class="st3" d="M122.9,282.8c-0.9-0.2-1.7-0.6-2.4-1.2c-0.8-0.7-1.4-1.7-1.9-2.9c-0.5-1.2-0.7-2.6-0.7-4.1
	c0-1.9,0.4-3.6,1.1-5.1c0.6-1.5,1.6-2.5,2.9-3.2c1.3-0.7,3-1,5.1-1h4.1v-6.6h3.6v24.6h-8C125.1,283.2,123.9,283.1,122.9,282.8"/>
<path class="st3" d="M355.7,282.5c-2.3-0.8-4-2.7-5-5.5c-0.6-1.5-0.9-3.4-0.9-5.6c0-3,0.5-5.3,1.4-7.2c1.1-2,2.4-3.5,4-4.3
	c1.6-0.8,3.8-1.3,6.7-1.3h6.9v3.1h-7.2c-1.3,0-2.3,0.1-3.1,0.3c-0.7,0.2-1.4,0.5-1.9,1c-0.8,0.6-1.4,1.4-1.8,2.4
	c-0.4,1-0.6,2.3-0.7,3.9h14.7v3.1h-14.7c0,1.8,0.4,3.4,1.2,4.8c0.6,1.1,1.4,1.8,2.3,2.2c0.9,0.4,2.2,0.6,3.8,0.6h7.4v3.1h-8.1
	C358.7,283.2,357,282.9,355.7,282.5"/>
<g>
	<defs>
		<path id="SVGID_4_" d="M324.9,269.6c-0.9,1.1-1.4,2.6-1.4,4.7c0,1.9,0.4,3.4,1.2,4.3c1,1.2,2.4,1.8,4.2,1.8c3.7,0,5.5-2,5.5-6
			c0-2.1-0.5-3.6-1.4-4.7c-0.9-1.1-2.3-1.6-4.1-1.7C327.2,268,325.8,268.5,324.9,269.6"/>
	</defs>
	<clipPath id="SVGID_5_">
		<use xlink:href="#SVGID_4_"  style="overflow:visible;"/>
	</clipPath>
	
		<linearGradient id="SVGID_6_" gradientUnits="userSpaceOnUse" x1="-75.3506" y1="562.7593" x2="-65.9666" y2="562.7593" gradientTransform="matrix(54.3417 0 0 -54.3417 4096.709 30855.5312)">
		<stop  offset="0" style="stop-color:#3D703E"/>
		<stop  offset="1.212120e-02" style="stop-color:#3D703E"/>
		<stop  offset="2.101411e-02" style="stop-color:#447545"/>
		<stop  offset="8.683133e-02" style="stop-color:#759A76"/>
		<stop  offset="0.1543" style="stop-color:#A0B9A0"/>
		<stop  offset="0.2224" style="stop-color:#C2D2C2"/>
		<stop  offset="0.2912" style="stop-color:#DDE6DD"/>
		<stop  offset="0.3612" style="stop-color:#F0F4F0"/>
		<stop  offset="0.4329" style="stop-color:#FBFCFB"/>
		<stop  offset="0.5091" style="stop-color:#FFFFFF"/>
		<stop  offset="0.5716" style="stop-color:#FEFBFB"/>
		<stop  offset="0.6393" style="stop-color:#FBF0EE"/>
		<stop  offset="0.7093" style="stop-color:#F6DDD8"/>
		<stop  offset="0.7811" style="stop-color:#EFC3BA"/>
		<stop  offset="0.8542" style="stop-color:#E6A193"/>
		<stop  offset="0.9273" style="stop-color:#DB7864"/>
		<stop  offset="1" style="stop-color:#CF492D"/>
	</linearGradient>
	<rect x="323.5" y="268" class="st4" width="10.9" height="12.4"/>
</g>
<g>
	<defs>
		<path id="SVGID_7_" d="M232.9,261.8v7.9h7c2.1,0,3.5-0.3,4.1-0.7c0.9-0.7,1.4-1.8,1.4-3.2c0-1.6-0.5-2.8-1.6-3.4
			c-0.6-0.4-1.9-0.5-4-0.5H232.9z"/>
	</defs>
	<clipPath id="SVGID_8_">
		<use xlink:href="#SVGID_7_"  style="overflow:visible;"/>
	</clipPath>
	
		<linearGradient id="SVGID_9_" gradientUnits="userSpaceOnUse" x1="-75.3506" y1="562.8992" x2="-65.9666" y2="562.8992" gradientTransform="matrix(54.3417 0 0 -54.3417 4096.709 30854.623)">
		<stop  offset="0" style="stop-color:#3D703E"/>
		<stop  offset="1.212120e-02" style="stop-color:#3D703E"/>
		<stop  offset="2.101411e-02" style="stop-color:#447545"/>
		<stop  offset="8.683133e-02" style="stop-color:#759A76"/>
		<stop  offset="0.1543" style="stop-color:#A0B9A0"/>
		<stop  offset="0.2224" style="stop-color:#C2D2C2"/>
		<stop  offset="0.2912" style="stop-color:#DDE6DD"/>
		<stop  offset="0.3612" style="stop-color:#F0F4F0"/>
		<stop  offset="0.4329" style="stop-color:#FBFCFB"/>
		<stop  offset="0.5091" style="stop-color:#FFFFFF"/>
		<stop  offset="0.5716" style="stop-color:#FEFBFB"/>
		<stop  offset="0.6393" style="stop-color:#FBF0EE"/>
		<stop  offset="0.7093" style="stop-color:#F6DDD8"/>
		<stop  offset="0.7811" style="stop-color:#EFC3BA"/>
		<stop  offset="0.8542" style="stop-color:#E6A193"/>
		<stop  offset="0.9273" style="stop-color:#DB7864"/>
		<stop  offset="1" style="stop-color:#CF492D"/>
	</linearGradient>
	<rect x="232.9" y="261.8" class="st5" width="12.6" height="7.9"/>
</g>
<g>
	<defs>
		<path id="SVGID_10_" d="M102.2,269.6c-0.9,1.1-1.4,2.6-1.4,4.7c0,1.9,0.4,3.4,1.2,4.3c1,1.2,2.4,1.8,4.2,1.8c3.7,0,5.6-2,5.6-6
			c0-2.1-0.5-3.6-1.4-4.7c-0.9-1.1-2.3-1.6-4.1-1.7C104.5,268,103.1,268.5,102.2,269.6"/>
	</defs>
	<clipPath id="SVGID_11_">
		<use xlink:href="#SVGID_10_"  style="overflow:visible;"/>
	</clipPath>
	
		<linearGradient id="SVGID_12_" gradientUnits="userSpaceOnUse" x1="-75.3506" y1="562.7593" x2="-65.9666" y2="562.7593" gradientTransform="matrix(54.3417 0 0 -54.3417 4096.709 30855.5312)">
		<stop  offset="0" style="stop-color:#3D703E"/>
		<stop  offset="1.212120e-02" style="stop-color:#3D703E"/>
		<stop  offset="2.101411e-02" style="stop-color:#447545"/>
		<stop  offset="8.683133e-02" style="stop-color:#759A76"/>
		<stop  offset="0.1543" style="stop-color:#A0B9A0"/>
		<stop  offset="0.2224" style="stop-color:#C2D2C2"/>
		<stop  offset="0.2912" style="stop-color:#DDE6DD"/>
		<stop  offset="0.3612" style="stop-color:#F0F4F0"/>
		<stop  offset="0.4329" style="stop-color:#FBFCFB"/>
		<stop  offset="0.5091" style="stop-color:#FFFFFF"/>
		<stop  offset="0.5716" style="stop-color:#FEFBFB"/>
		<stop  offset="0.6393" style="stop-color:#FBF0EE"/>
		<stop  offset="0.7093" style="stop-color:#F6DDD8"/>
		<stop  offset="0.7811" style="stop-color:#EFC3BA"/>
		<stop  offset="0.8542" style="stop-color:#E6A193"/>
		<stop  offset="0.9273" style="stop-color:#DB7864"/>
		<stop  offset="1" style="stop-color:#CF492D"/>
	</linearGradient>
	<rect x="100.7" y="268" class="st6" width="10.9" height="12.4"/>
</g>
<g>
	<defs>
		<path id="SVGID_13_" d="M300.2,268.1c-1.5,0-2.6,0.1-3.2,0.4c-1.1,0.4-1.9,1.4-2.3,2.9c-0.3,1.1-0.4,2.1-0.4,3.2
			c0,1.8,0.4,3.3,1.2,4.4c0.4,0.5,0.9,0.9,1.5,1.1c0.6,0.2,1.5,0.3,2.6,0.3h4.2v-12.3H300.2z"/>
	</defs>
	<clipPath id="SVGID_14_">
		<use xlink:href="#SVGID_13_"  style="overflow:visible;"/>
	</clipPath>
	
		<linearGradient id="SVGID_15_" gradientUnits="userSpaceOnUse" x1="-75.3506" y1="562.7592" x2="-65.9666" y2="562.7592" gradientTransform="matrix(54.3417 0 0 -54.3417 4096.709 30855.5312)">
		<stop  offset="0" style="stop-color:#3D703E"/>
		<stop  offset="1.212120e-02" style="stop-color:#3D703E"/>
		<stop  offset="2.101411e-02" style="stop-color:#447545"/>
		<stop  offset="8.683133e-02" style="stop-color:#759A76"/>
		<stop  offset="0.1543" style="stop-color:#A0B9A0"/>
		<stop  offset="0.2224" style="stop-color:#C2D2C2"/>
		<stop  offset="0.2912" style="stop-color:#DDE6DD"/>
		<stop  offset="0.3612" style="stop-color:#F0F4F0"/>
		<stop  offset="0.4329" style="stop-color:#FBFCFB"/>
		<stop  offset="0.5091" style="stop-color:#FFFFFF"/>
		<stop  offset="0.5716" style="stop-color:#FEFBFB"/>
		<stop  offset="0.6393" style="stop-color:#FBF0EE"/>
		<stop  offset="0.7093" style="stop-color:#F6DDD8"/>
		<stop  offset="0.7811" style="stop-color:#EFC3BA"/>
		<stop  offset="0.8542" style="stop-color:#E6A193"/>
		<stop  offset="0.9273" style="stop-color:#DB7864"/>
		<stop  offset="1" style="stop-color:#CF492D"/>
	</linearGradient>
	<rect x="294.2" y="268.1" class="st7" width="9.6" height="12.3"/>
</g>
<g>
	<defs>
		<path id="SVGID_16_" d="M279.4,268.1c-1.5,0-2.6,0.1-3.2,0.4c-1.1,0.4-1.9,1.4-2.3,2.9c-0.3,1.1-0.5,2.1-0.5,3.2
			c0,1.8,0.4,3.3,1.2,4.4c0.4,0.5,0.9,0.9,1.5,1.1c0.6,0.2,1.5,0.3,2.6,0.3h4.2v-12.3H279.4z"/>
	</defs>
	<clipPath id="SVGID_17_">
		<use xlink:href="#SVGID_16_"  style="overflow:visible;"/>
	</clipPath>
	
		<linearGradient id="SVGID_18_" gradientUnits="userSpaceOnUse" x1="-75.3506" y1="562.7592" x2="-65.9666" y2="562.7592" gradientTransform="matrix(54.3417 0 0 -54.3417 4096.709 30855.5312)">
		<stop  offset="0" style="stop-color:#3D703E"/>
		<stop  offset="1.212120e-02" style="stop-color:#3D703E"/>
		<stop  offset="2.101411e-02" style="stop-color:#447545"/>
		<stop  offset="8.683133e-02" style="stop-color:#759A76"/>
		<stop  offset="0.1543" style="stop-color:#A0B9A0"/>
		<stop  offset="0.2224" style="stop-color:#C2D2C2"/>
		<stop  offset="0.2912" style="stop-color:#DDE6DD"/>
		<stop  offset="0.3612" style="stop-color:#F0F4F0"/>
		<stop  offset="0.4329" style="stop-color:#FBFCFB"/>
		<stop  offset="0.5091" style="stop-color:#FFFFFF"/>
		<stop  offset="0.5716" style="stop-color:#FEFBFB"/>
		<stop  offset="0.6393" style="stop-color:#FBF0EE"/>
		<stop  offset="0.7093" style="stop-color:#F6DDD8"/>
		<stop  offset="0.7811" style="stop-color:#EFC3BA"/>
		<stop  offset="0.8542" style="stop-color:#E6A193"/>
		<stop  offset="0.9273" style="stop-color:#DB7864"/>
		<stop  offset="1" style="stop-color:#CF492D"/>
	</linearGradient>
	<rect x="273.4" y="268.1" class="st8" width="9.6" height="12.3"/>
</g>
<g>
	<defs>
		<path id="SVGID_19_" d="M183.8,275.1c-1,0-1.8,0.1-2.3,0.3c-0.8,0.4-1.2,1.1-1.2,2.3c0,1,0.3,1.6,0.8,2c0.5,0.4,1.4,0.6,2.7,0.6
			h5.9v-5.3H183.8z"/>
	</defs>
	<clipPath id="SVGID_20_">
		<use xlink:href="#SVGID_19_"  style="overflow:visible;"/>
	</clipPath>
	
		<linearGradient id="SVGID_21_" gradientUnits="userSpaceOnUse" x1="-75.3506" y1="562.7017" x2="-65.9666" y2="562.7017" gradientTransform="matrix(54.3417 0 0 -54.3417 4096.709 30855.9023)">
		<stop  offset="0" style="stop-color:#3D703E"/>
		<stop  offset="1.212120e-02" style="stop-color:#3D703E"/>
		<stop  offset="2.101411e-02" style="stop-color:#447545"/>
		<stop  offset="8.683133e-02" style="stop-color:#759A76"/>
		<stop  offset="0.1543" style="stop-color:#A0B9A0"/>
		<stop  offset="0.2224" style="stop-color:#C2D2C2"/>
		<stop  offset="0.2912" style="stop-color:#DDE6DD"/>
		<stop  offset="0.3612" style="stop-color:#F0F4F0"/>
		<stop  offset="0.4329" style="stop-color:#FBFCFB"/>
		<stop  offset="0.5091" style="stop-color:#FFFFFF"/>
		<stop  offset="0.5716" style="stop-color:#FEFBFB"/>
		<stop  offset="0.6393" style="stop-color:#FBF0EE"/>
		<stop  offset="0.7093" style="stop-color:#F6DDD8"/>
		<stop  offset="0.7811" style="stop-color:#EFC3BA"/>
		<stop  offset="0.8542" style="stop-color:#E6A193"/>
		<stop  offset="0.9273" style="stop-color:#DB7864"/>
		<stop  offset="1" style="stop-color:#CF492D"/>
	</linearGradient>
	<rect x="180.2" y="275.1" class="st9" width="9.5" height="5.3"/>
</g>
<g>
	<defs>
		<path id="SVGID_22_" d="M127.3,268.1c-1.2,0-2.1,0.1-2.8,0.4c-0.7,0.3-1.3,0.7-1.7,1.4c-0.7,1-1.1,2.4-1.1,4.3
			c0,2.3,0.4,3.9,1.1,4.8c0.8,0.9,2,1.4,3.9,1.4h4.4v-12.3H127.3z"/>
	</defs>
	<clipPath id="SVGID_23_">
		<use xlink:href="#SVGID_22_"  style="overflow:visible;"/>
	</clipPath>
	
		<linearGradient id="SVGID_24_" gradientUnits="userSpaceOnUse" x1="-75.3506" y1="562.7592" x2="-65.9666" y2="562.7592" gradientTransform="matrix(54.3414 0 0 -54.3414 4096.6812 30855.3223)">
		<stop  offset="0" style="stop-color:#3D703E"/>
		<stop  offset="1.212120e-02" style="stop-color:#3D703E"/>
		<stop  offset="2.101411e-02" style="stop-color:#447545"/>
		<stop  offset="8.683133e-02" style="stop-color:#759A76"/>
		<stop  offset="0.1543" style="stop-color:#A0B9A0"/>
		<stop  offset="0.2224" style="stop-color:#C2D2C2"/>
		<stop  offset="0.2912" style="stop-color:#DDE6DD"/>
		<stop  offset="0.3612" style="stop-color:#F0F4F0"/>
		<stop  offset="0.4329" style="stop-color:#FBFCFB"/>
		<stop  offset="0.5091" style="stop-color:#FFFFFF"/>
		<stop  offset="0.5716" style="stop-color:#FEFBFB"/>
		<stop  offset="0.6393" style="stop-color:#FBF0EE"/>
		<stop  offset="0.7093" style="stop-color:#F6DDD8"/>
		<stop  offset="0.7811" style="stop-color:#EFC3BA"/>
		<stop  offset="0.8542" style="stop-color:#E6A193"/>
		<stop  offset="0.9273" style="stop-color:#DB7864"/>
		<stop  offset="1" style="stop-color:#CF492D"/>
	</linearGradient>
	<rect x="121.6" y="268.1" class="st10" width="9.4" height="12.3"/>
</g>
<g>
	<defs>
		<path id="SVGID_25_" d="M434.2,275.1c-1,0-1.8,0.1-2.3,0.3c-0.8,0.4-1.2,1.1-1.2,2.3c0,1,0.3,1.6,0.8,2c0.5,0.4,1.4,0.6,2.7,0.6h6
			v-5.3H434.2z"/>
	</defs>
	<clipPath id="SVGID_26_">
		<use xlink:href="#SVGID_25_"  style="overflow:visible;"/>
	</clipPath>
	
		<linearGradient id="SVGID_27_" gradientUnits="userSpaceOnUse" x1="-75.3506" y1="562.7017" x2="-65.9666" y2="562.7017" gradientTransform="matrix(54.3417 0 0 -54.3417 4096.709 30855.9023)">
		<stop  offset="0" style="stop-color:#3D703E"/>
		<stop  offset="1.212120e-02" style="stop-color:#3D703E"/>
		<stop  offset="2.101411e-02" style="stop-color:#447545"/>
		<stop  offset="8.683133e-02" style="stop-color:#759A76"/>
		<stop  offset="0.1543" style="stop-color:#A0B9A0"/>
		<stop  offset="0.2224" style="stop-color:#C2D2C2"/>
		<stop  offset="0.2912" style="stop-color:#DDE6DD"/>
		<stop  offset="0.3612" style="stop-color:#F0F4F0"/>
		<stop  offset="0.4329" style="stop-color:#FBFCFB"/>
		<stop  offset="0.5091" style="stop-color:#FFFFFF"/>
		<stop  offset="0.5716" style="stop-color:#FEFBFB"/>
		<stop  offset="0.6393" style="stop-color:#FBF0EE"/>
		<stop  offset="0.7093" style="stop-color:#F6DDD8"/>
		<stop  offset="0.7811" style="stop-color:#EFC3BA"/>
		<stop  offset="0.8542" style="stop-color:#E6A193"/>
		<stop  offset="0.9273" style="stop-color:#DB7864"/>
		<stop  offset="1" style="stop-color:#CF492D"/>
	</linearGradient>
	<rect x="430.7" y="275.1" class="st11" width="9.5" height="5.3"/>
</g>
<g>
	<path class="st0" d="M443.5,268.7c-0.2-0.7-0.5-1.3-0.9-1.8c-0.5-0.6-1.2-1-2-1.3c-0.8-0.3-2.1-0.4-3.7-0.4h-9.2v2.8h8.4
		c1.8,0,2.9,0.2,3.4,0.7c0.5,0.5,0.7,1.6,0.7,3.5h-6.4c-2.2,0-3.7,0.3-4.5,0.8c-0.7,0.5-1.3,1.1-1.7,1.9c-0.4,0.8-0.6,1.8-0.6,2.8
		c0,1.4,0.4,2.6,1.1,3.5c0.7,0.9,1.8,1.5,3.1,1.7c0.6,0.1,1.7,0.2,3.4,0.2h9.1v-11.3C443.7,270.5,443.7,269.4,443.5,268.7z
		 M440.2,280.4h-5.9c-1.3,0-2.2-0.2-2.7-0.6c-0.5-0.4-0.8-1.1-0.8-2c0-1.2,0.4-2,1.2-2.3c0.5-0.2,1.3-0.3,2.3-0.3h5.9V280.4z"/>
	<rect x="419.4" y="258.6" class="st0" width="3.6" height="3.7"/>
	<rect x="419.4" y="265.2" class="st0" width="3.6" height="17.9"/>
	<rect x="410.8" y="258.6" class="st0" width="3.6" height="24.5"/>
	<rect x="402.1" y="265.2" class="st0" width="3.6" height="17.9"/>
	<rect x="402.1" y="258.6" class="st0" width="3.6" height="3.7"/>
	<path class="st0" d="M395.5,266.5c-0.7-0.6-1.4-0.9-2.1-1.1c-0.8-0.2-2.2-0.2-4.4-0.2h-15.8v17.9h3.6v-15.1h6.6v15.1h3.6v-15.1h2.8
		c1.5,0,2.6,0.3,3.2,0.9c0.6,0.6,0.9,1.6,0.9,3.1v11.1h3.6v-11.1c0-1.5-0.1-2.7-0.4-3.5C396.6,267.8,396.1,267.1,395.5,266.5z"/>
	<path class="st0" d="M355.2,259.9c-1.6,0.8-2.9,2.3-4,4.3c-0.9,1.8-1.4,4.2-1.4,7.2c0,2.2,0.3,4.1,0.9,5.6c1.1,2.8,2.7,4.6,5,5.5
		c1.3,0.5,3,0.7,5,0.7h8.1V280h-7.4c-1.6,0-2.9-0.2-3.8-0.6c-0.9-0.4-1.7-1.2-2.3-2.2c-0.8-1.4-1.2-3-1.2-4.8h14.7v-3.1h-14.7
		c0.1-1.6,0.3-2.9,0.7-3.8c0.4-1,1-1.8,1.8-2.4c0.6-0.5,1.2-0.8,2-0.9c0.7-0.2,1.8-0.3,3.1-0.3h7.2v-3.1h-6.9
		C359,258.6,356.8,259,355.2,259.9z"/>
	<path class="st0" d="M329.1,265c-3.2,0-5.5,0.9-7,2.6c-1.5,1.7-2.3,4-2.3,6.9c0,2.7,0.7,4.8,2.1,6.3c1.6,1.7,4,2.6,7.1,2.6
		c3,0,5.3-0.8,6.9-2.5c1.5-1.6,2.3-3.8,2.3-6.5c0-3-0.7-5.2-2.2-6.8C334.3,265.9,332,265,329.1,265z M328.9,280.4
		c-1.8,0-3.3-0.6-4.2-1.8c-0.8-1-1.2-2.4-1.2-4.3c0-2,0.5-3.6,1.4-4.7c0.9-1.1,2.3-1.6,4-1.6c1.8,0,3.1,0.6,4.1,1.7
		c0.9,1.1,1.4,2.7,1.4,4.7C334.4,278.4,332.6,280.4,328.9,280.4z"/>
	<rect x="312.4" y="265.2" class="st0" width="3.6" height="17.9"/>
	<rect x="312.4" y="258.6" class="st0" width="3.6" height="3.7"/>
	<path class="st0" d="M295.4,265.7c-1,0.3-1.9,0.9-2.7,1.8c-1.5,1.7-2.3,4.1-2.3,7.1c0,3.6,1.2,6.1,3.5,7.5c0.7,0.5,1.5,0.8,2.2,0.9
		c0.7,0.1,1.9,0.2,3.7,0.2h3.8c0,1-0.1,1.7-0.2,2.1c-0.2,0.3-0.4,0.5-0.8,0.6c-0.4,0.1-1.1,0.2-2.1,0.2h-8.2v2.8h7.7
		c1.8,0,3.2-0.1,4.1-0.3c0.9-0.2,1.6-0.7,2.2-1.2c0.4-0.5,0.7-1,0.8-1.7c0.1-0.6,0.1-2.1,0.2-4.5v-15.9h-7.4
		C298,265.2,296.5,265.4,295.4,265.7z M303.7,268.1v12.3h-4.2c-1.2,0-2-0.1-2.6-0.3c-0.6-0.2-1.1-0.6-1.5-1.1
		c-0.8-1.1-1.3-2.5-1.3-4.3c0-1.1,0.2-2.2,0.5-3.2c0.4-1.5,1.2-2.5,2.3-2.9c0.6-0.2,1.7-0.4,3.2-0.4H303.7z"/>
	<path class="st0" d="M274.7,265.7c-1,0.3-1.9,0.9-2.7,1.8c-1.5,1.7-2.3,4.1-2.3,7.1c0,3.6,1.2,6.1,3.5,7.5c0.7,0.5,1.5,0.8,2.2,0.9
		c0.7,0.1,1.9,0.2,3.7,0.2h3.8c0,1-0.1,1.7-0.2,2.1c-0.2,0.3-0.4,0.5-0.8,0.6c-0.4,0.1-1.1,0.2-2.1,0.2h-8.2v2.8h7.7
		c1.8,0,3.2-0.1,4.1-0.3c0.9-0.2,1.6-0.7,2.2-1.2c0.4-0.5,0.7-1,0.8-1.7c0.1-0.6,0.1-2.1,0.2-4.5v-15.9h-7.4
		C277.2,265.2,275.8,265.4,274.7,265.7z M283,268.1v12.3h-4.2c-1.1,0-2-0.1-2.6-0.3c-0.6-0.2-1.1-0.6-1.5-1.1
		c-0.8-1.1-1.3-2.5-1.3-4.3c0-1.1,0.2-2.2,0.5-3.2c0.4-1.5,1.2-2.5,2.3-2.9c0.6-0.2,1.7-0.4,3.2-0.4H283z"/>
	<path class="st0" d="M256.1,266.5c-2.6,1.6-3.9,4.3-3.9,8.1c0,3.1,0.8,5.5,2.6,7c0.7,0.6,1.4,1,2.3,1.3c0.9,0.2,2,0.3,3.6,0.3h6.1
		v-2.8h-5.2c-1.2,0-2.1-0.1-2.7-0.3c-0.6-0.2-1.2-0.5-1.6-0.9c-0.9-0.9-1.3-2.1-1.2-3.8h10.8v-2.8H256c0.2-1.4,0.7-2.5,1.5-3.2
		c0.5-0.5,1.1-0.8,1.8-1c0.7-0.2,1.7-0.3,2.9-0.3h4.6v-2.8h-5.2C259.3,265.2,257.4,265.7,256.1,266.5z"/>
	<path class="st0" d="M249,279.4c-0.2-2.3-0.5-4-1.1-5c-0.6-1-1.7-1.9-3.4-2.6c1.3-0.4,2.3-0.9,3-1.5c1.4-1.2,2.1-2.8,2.1-5
		c0-1.1-0.2-2.2-0.7-3.2c-0.5-1-1.1-1.7-2-2.3c-1.3-0.9-3.5-1.3-6.8-1.3h-11.2v24.5h3.9v-10.4h3.9c2.9,0,5,0.5,6.2,1.5
		c1.2,1,1.9,2.8,2.2,5.4c0.1,1.6,0.2,2.5,0.3,2.8c0,0.3,0.1,0.5,0.3,0.8h4c-0.2-0.4-0.4-0.7-0.4-1
		C249.2,281.8,249.1,280.9,249,279.4z M239.9,269.6h-7v-7.9h7c2.1,0,3.4,0.2,4,0.5c1,0.6,1.6,1.8,1.6,3.4c0,1.4-0.5,2.5-1.4,3.2
		C243.3,269.4,241.9,269.6,239.9,269.6z"/>
	<rect x="204.8" y="271.9" class="st0" width="12.3" height="2.8"/>
	<path class="st0" d="M192.2,266.9c-0.5-0.6-1.2-1-2-1.3c-0.8-0.3-2.1-0.4-3.7-0.4h-9.2v2.8h8.4c1.8,0,2.9,0.2,3.4,0.7
		c0.5,0.5,0.7,1.6,0.7,3.5h-6.4c-2.2,0-3.7,0.3-4.5,0.8c-0.7,0.5-1.3,1.1-1.7,1.9c-0.4,0.8-0.6,1.8-0.6,2.8c0,1.4,0.4,2.6,1.1,3.5
		c0.7,0.9,1.8,1.5,3.1,1.7c0.6,0.1,1.7,0.2,3.4,0.2h9.1v-11.3c0-1.4-0.1-2.4-0.2-3.1C192.9,268,192.6,267.4,192.2,266.9z
		 M189.7,280.4h-5.9c-1.3,0-2.2-0.2-2.7-0.6c-0.5-0.4-0.8-1.1-0.8-2c0-1.2,0.4-2,1.2-2.3c0.5-0.2,1.3-0.3,2.3-0.3h5.9V280.4z"/>
	<path class="st0" d="M169.3,265.8c-0.9-0.3-2.2-0.5-3.8-0.5h-8.3v17.9h3.6v-15.1h4.2c1.6,0,2.7,0.3,3.3,1.1c0.6,0.7,0.9,2,0.9,3.7
		v10.3h3.6v-10.7c0-2.3-0.4-4-1.2-5C171,266.7,170.2,266.1,169.3,265.8z"/>
	<path class="st0" d="M142.4,266.5c-2.6,1.6-3.9,4.3-3.9,8.1c0,3.1,0.8,5.5,2.6,7c0.7,0.6,1.4,1,2.3,1.3c0.9,0.2,2,0.3,3.6,0.3h6.1
		v-2.8h-5.2c-1.2,0-2.1-0.1-2.7-0.3c-0.6-0.2-1.2-0.5-1.6-0.9c-0.9-0.9-1.3-2.1-1.2-3.8H153v-2.8h-10.8c0.2-1.4,0.7-2.5,1.5-3.2
		c0.5-0.5,1.1-0.8,1.8-1c0.7-0.2,1.7-0.3,2.9-0.3h4.6v-2.8h-5.2C145.6,265.2,143.7,265.7,142.4,266.5z"/>
	<path class="st0" d="M131.1,265.2H127c-2.1,0-3.8,0.3-5.1,1c-1.3,0.7-2.2,1.7-2.9,3.2c-0.7,1.6-1,3.3-1,5.1c0,1.5,0.2,2.9,0.7,4.1
		c0.5,1.2,1.1,2.2,1.9,2.9c0.7,0.6,1.5,1,2.4,1.2c0.9,0.2,2.2,0.4,3.7,0.4h8v-24.5h-3.6V265.2z M131.1,280.4h-4.4
		c-1.8,0-3.1-0.5-3.9-1.4c-0.8-0.9-1.1-2.5-1.1-4.8c0-1.8,0.3-3.3,1-4.3c0.5-0.7,1-1.1,1.7-1.4c0.7-0.3,1.6-0.4,2.8-0.4h3.8V280.4z"
		/>
	<path class="st0" d="M106.4,265c-3.2,0-5.5,0.9-7,2.6c-1.5,1.7-2.3,4-2.3,6.9c0,2.7,0.7,4.8,2.1,6.3c1.6,1.7,4,2.6,7.1,2.6
		c3,0,5.2-0.8,6.9-2.5c1.5-1.6,2.3-3.8,2.3-6.5c0-3-0.7-5.2-2.2-6.8C111.5,265.9,109.3,265,106.4,265z M106.1,280.4
		c-1.8,0-3.3-0.6-4.2-1.8c-0.8-1-1.2-2.4-1.2-4.3c0-2,0.5-3.6,1.4-4.7c0.9-1.1,2.3-1.6,4-1.6c1.8,0,3.1,0.6,4.1,1.7
		c0.9,1.1,1.4,2.7,1.4,4.7C111.7,278.4,109.8,280.4,106.1,280.4z"/>
	<polygon class="st0" points="79.9,278.6 71.8,258.6 66.1,258.6 66.1,283.2 69.9,283.2 69.9,262.3 77.8,283.2 81.7,283.2 
		89.3,262.3 89.3,283.2 93.1,283.2 93.1,258.6 87.3,258.6 	"/>
</g>
</svg>
