<svg width="1441" height="227" viewBox="0 0 1441 227" fill="none" xmlns="http://www.w3.org/2000/svg">
<g clip-path="url(#clip0)">
<rect width="1453" height="852" transform="translate(-7 -369)" fill="#002F87"/>
<rect x="2" y="3" width="126" height="124.909" fill="#000033"/>
<path fill-rule="evenodd" clip-rule="evenodd" d="M35.8181 58.9159V63.3193L37.5575 63.3178H41.0351L41.0376 61.5772H37.5575V58.0998L35.8181 58.9159Z" fill="#00A0DF"/>
<path fill-rule="evenodd" clip-rule="evenodd" d="M42.4612 53.6736H45.9415V57.1508L47.6807 56.3346V51.9313L45.9415 51.9327H42.4637L42.4612 53.6736Z" fill="#00A0DF"/>
<path fill-rule="evenodd" clip-rule="evenodd" d="M56.6963 61.577H53.216V58.0998L51.4768 58.9159V63.3193L53.216 63.318V63.3178H56.6938L56.6963 61.577Z" fill="#00A0DF"/>
<path fill-rule="evenodd" clip-rule="evenodd" d="M57.6453 53.6736H61.1256V57.1508L62.8648 56.3346V51.9313L61.1256 51.9327H57.648L57.6453 53.6736Z" fill="#00A0DF"/>
<path fill-rule="evenodd" clip-rule="evenodd" d="M35.8181 43.7319V48.1353L37.5575 48.1338H41.0351L41.0376 46.393H37.5575V42.9158L35.8181 43.7319Z" fill="#00A0DF"/>
<path fill-rule="evenodd" clip-rule="evenodd" d="M47.6807 36.2727L45.9415 36.2742V36.2744H42.4639L42.4612 38.015H45.9415V41.4922L47.6807 40.6759V36.2727Z" fill="#00A0DF"/>
<path fill-rule="evenodd" clip-rule="evenodd" d="M56.6963 46.393H53.216V42.9158L51.4768 43.7319V48.1353L53.216 48.134V48.1338H56.6938L56.6963 46.393Z" fill="#00A0DF"/>
<path fill-rule="evenodd" clip-rule="evenodd" d="M62.8648 36.2727L61.1255 36.2742V36.2744H57.6482L57.6453 38.015H61.1255V41.4922L62.8648 40.6759V36.2727Z" fill="#00A0DF"/>
<path fill-rule="evenodd" clip-rule="evenodd" d="M35.8181 90.233V94.6364L37.5575 94.6349H41.0351L41.0376 92.8943H37.5575V89.4169L35.8181 90.233Z" fill="#00A0DF"/>
<path fill-rule="evenodd" clip-rule="evenodd" d="M42.4612 84.5161H45.9415V87.9933L47.6807 87.1772V82.7738L45.9415 82.7751V82.7753H42.4637L42.4612 84.5161Z" fill="#00A0DF"/>
<path fill-rule="evenodd" clip-rule="evenodd" d="M51.4768 90.233V94.6364L53.216 94.6349H56.6936L56.6963 92.8943H53.216V89.4169L51.4768 90.233Z" fill="#00A0DF"/>
<path fill-rule="evenodd" clip-rule="evenodd" d="M57.6453 84.5161H61.1256V87.9933L62.8648 87.1772V82.7738L61.1256 82.7751V82.7753H57.648L57.6453 84.5161Z" fill="#00A0DF"/>
<path fill-rule="evenodd" clip-rule="evenodd" d="M35.8181 75.0489V79.4524L37.5575 79.4509H41.0351L41.0376 77.7102H37.5575V74.2328L35.8181 75.0489Z" fill="#00A0DF"/>
<path fill-rule="evenodd" clip-rule="evenodd" d="M42.4612 69.3321H45.9415V72.8093L47.6807 71.9932V67.5898L45.9415 67.5911V67.5913H42.4637L42.4612 69.3321Z" fill="#00A0DF"/>
<path fill-rule="evenodd" clip-rule="evenodd" d="M56.6963 77.7101H53.216V74.2328L51.4768 75.049V79.4524L53.216 79.4509H56.6938L56.6963 77.7101Z" fill="#00A0DF"/>
<path fill-rule="evenodd" clip-rule="evenodd" d="M57.6453 69.3321H61.1256V72.8093L62.8648 71.9932V67.5898L61.1256 67.5911V67.5913H57.648L57.6453 69.3321Z" fill="#00A0DF"/>
<path fill-rule="evenodd" clip-rule="evenodd" d="M72.3548 61.577H68.8744V58.0998L67.1353 58.9159V63.3193L68.8744 63.318V63.3178H72.3522L72.3548 61.577Z" fill="#00A0DF"/>
<path fill-rule="evenodd" clip-rule="evenodd" d="M73.7783 53.6736H77.2587V57.1508L78.9978 56.3346V51.9313L77.2587 51.9327H73.7811L73.7783 53.6736Z" fill="#00A0DF"/>
<path fill-rule="evenodd" clip-rule="evenodd" d="M87.5388 61.577H84.0585V58.0998L82.3193 58.9159V63.3193L84.0585 63.318V63.3178H87.5361L87.5388 61.577Z" fill="#00A0DF"/>
<path fill-rule="evenodd" clip-rule="evenodd" d="M92.4426 51.9327H88.965L88.9624 53.6737H92.4426V57.1508L94.1819 56.3345V51.9313L92.4426 51.9327Z" fill="#00A0DF"/>
<path fill-rule="evenodd" clip-rule="evenodd" d="M72.3548 46.393H68.8744V42.9158L67.1353 43.7319V48.1353L68.8744 48.134L72.3522 48.1338L72.3548 46.393Z" fill="#00A0DF"/>
<path fill-rule="evenodd" clip-rule="evenodd" d="M78.9978 36.2727L77.2585 36.2742V36.2744H73.7811L73.7783 38.015H77.2585V41.4922L78.9978 40.6759V36.2727Z" fill="#00A0DF"/>
<path fill-rule="evenodd" clip-rule="evenodd" d="M87.5388 46.393H84.0585V42.9158L82.3193 43.7319V48.1353L84.0585 48.134V48.1338H87.5361L87.5388 46.393Z" fill="#00A0DF"/>
<path fill-rule="evenodd" clip-rule="evenodd" d="M94.1819 36.2727L92.4426 36.2742V36.2744H88.9651L88.9624 38.015H92.4426V41.4922L94.1819 40.6759V36.2727Z" fill="#00A0DF"/>
<path fill-rule="evenodd" clip-rule="evenodd" d="M67.1353 90.233V94.6364L68.8744 94.6349H72.3522L72.3548 92.8943H68.8744V89.4169L67.1353 90.233Z" fill="#00A0DF"/>
<path fill-rule="evenodd" clip-rule="evenodd" d="M73.7783 84.5161H77.2587V87.9933L78.9978 87.1772V82.7738L77.2587 82.7751V82.7753H73.7811L73.7783 84.5161Z" fill="#00A0DF"/>
<path fill-rule="evenodd" clip-rule="evenodd" d="M82.3193 90.233V94.6364L84.0585 94.6349H87.5361L87.5388 92.8943H84.0585V89.4169L82.3193 90.233Z" fill="#00A0DF"/>
<path fill-rule="evenodd" clip-rule="evenodd" d="M92.4426 82.7753V82.7755H88.965L88.9624 84.5162H92.4426V87.9933L94.1819 87.177V82.7738L92.4426 82.7753Z" fill="#00A0DF"/>
<path fill-rule="evenodd" clip-rule="evenodd" d="M72.3548 77.7101H68.8744V74.2328L67.1353 75.049V79.4524L68.8744 79.4509H72.3522L72.3548 77.7101Z" fill="#00A0DF"/>
<path fill-rule="evenodd" clip-rule="evenodd" d="M73.7783 69.3321H77.2587V72.8093L78.9978 71.9932V67.5898L77.2587 67.5911V67.5913H73.7811L73.7783 69.3321Z" fill="#00A0DF"/>
<path fill-rule="evenodd" clip-rule="evenodd" d="M87.5388 77.7101H84.0585V74.2328L82.3193 75.049V79.4524L84.0585 79.4509H87.5361L87.5388 77.7101Z" fill="#00A0DF"/>
<path fill-rule="evenodd" clip-rule="evenodd" d="M92.4426 67.5913H88.965L88.9624 69.3322H92.4426V72.8093L94.1819 71.993V67.5898L92.4426 67.5913Z" fill="#00A0DF"/>
<g style="mix-blend-mode:hard-light">
<path fill-rule="evenodd" clip-rule="evenodd" d="M128 152.363V156.652L129.694 156.65H133.081L133.083 154.955H129.694V151.568L128 152.363Z" fill="#00A0DF"/>
<path fill-rule="evenodd" clip-rule="evenodd" d="M135.394 146.333H138.784V149.72L140.477 148.925V144.636L138.784 144.638H135.397L135.394 146.333Z" fill="#00A0DF"/>
<path fill-rule="evenodd" clip-rule="evenodd" d="M149.72 154.955H146.33V151.568L144.636 152.363V156.652L146.33 156.65V156.65H149.717L149.72 154.955Z" fill="#00A0DF"/>
<path fill-rule="evenodd" clip-rule="evenodd" d="M151.568 146.333H154.958V149.72L156.651 148.925V144.636L154.958 144.638H151.571L151.568 146.333Z" fill="#00A0DF"/>
<path fill-rule="evenodd" clip-rule="evenodd" d="M128 136.189V140.477L129.694 140.476H133.081L133.083 138.78H129.694V135.394L128 136.189Z" fill="#00A0DF"/>
<path fill-rule="evenodd" clip-rule="evenodd" d="M140.477 128L138.784 128.001V128.002H135.397L135.394 129.697H138.784V133.083L140.477 132.288V128Z" fill="#00A0DF"/>
<path fill-rule="evenodd" clip-rule="evenodd" d="M149.72 138.78H146.33V135.394L144.636 136.189V140.477L146.33 140.476V140.476H149.717L149.72 138.78Z" fill="#00A0DF"/>
<path fill-rule="evenodd" clip-rule="evenodd" d="M156.651 128L154.958 128.001V128.002H151.571L151.568 129.697H154.958V133.083L156.651 132.288V128Z" fill="#00A0DF"/>
<path fill-rule="evenodd" clip-rule="evenodd" d="M128 184.712V189L129.694 188.999H133.081L133.083 187.303H129.694V183.917L128 184.712Z" fill="#00A0DF"/>
<path fill-rule="evenodd" clip-rule="evenodd" d="M135.394 178.682H138.784V182.068L140.477 181.273V176.985L138.784 176.986V176.986H135.397L135.394 178.682Z" fill="#00A0DF"/>
<path fill-rule="evenodd" clip-rule="evenodd" d="M144.636 184.712V189L146.33 188.999H149.717L149.72 187.303H146.33V183.917L144.636 184.712Z" fill="#00A0DF"/>
<path fill-rule="evenodd" clip-rule="evenodd" d="M151.568 178.682H154.958V182.068L156.651 181.273V176.985L154.958 176.986V176.986H151.571L151.568 178.682Z" fill="#00A0DF"/>
<path fill-rule="evenodd" clip-rule="evenodd" d="M128 168.537V172.826L129.694 172.824H133.081L133.083 171.129H129.694V167.742L128 168.537Z" fill="#00A0DF"/>
<path fill-rule="evenodd" clip-rule="evenodd" d="M135.394 162.045H138.784V165.432L140.477 164.637V160.348L138.784 160.35V160.35H135.397L135.394 162.045Z" fill="#00A0DF"/>
<path fill-rule="evenodd" clip-rule="evenodd" d="M149.72 171.129H146.33V167.742L144.636 168.537V172.826L146.33 172.824H149.717L149.72 171.129Z" fill="#00A0DF"/>
<path fill-rule="evenodd" clip-rule="evenodd" d="M151.568 162.045H154.958V165.432L156.651 164.637V160.348L154.958 160.35V160.35H151.571L151.568 162.045Z" fill="#00A0DF"/>
<path fill-rule="evenodd" clip-rule="evenodd" d="M165.432 154.955H162.042V151.568L160.348 152.363V156.652L162.042 156.65V156.65H165.429L165.432 154.955Z" fill="#00A0DF"/>
<path fill-rule="evenodd" clip-rule="evenodd" d="M167.742 146.333H171.132V149.72L172.826 148.925V144.636L171.132 144.638H167.745L167.742 146.333Z" fill="#00A0DF"/>
<path fill-rule="evenodd" clip-rule="evenodd" d="M182.068 154.955H178.679V151.568L176.985 152.363V156.652L178.679 156.65V156.65H182.066L182.068 154.955Z" fill="#00A0DF"/>
<path fill-rule="evenodd" clip-rule="evenodd" d="M187.306 144.638H183.919L183.917 146.333H187.306V149.72L189 148.925V144.636L187.306 144.638Z" fill="#00A0DF"/>
<path fill-rule="evenodd" clip-rule="evenodd" d="M165.432 138.78H162.042V135.394L160.348 136.189V140.477L162.042 140.476V140.476H165.429L165.432 138.78Z" fill="#00A0DF"/>
<path fill-rule="evenodd" clip-rule="evenodd" d="M172.826 128L171.132 128.001V128.002H167.745L167.742 129.697H171.132V133.083L172.826 132.288V128Z" fill="#00A0DF"/>
<path fill-rule="evenodd" clip-rule="evenodd" d="M182.068 138.78H178.679V135.394L176.985 136.189V140.477L178.679 140.476V140.476H182.066L182.068 138.78Z" fill="#00A0DF"/>
<path fill-rule="evenodd" clip-rule="evenodd" d="M189 128L187.306 128.001V128.002H183.919L183.917 129.697H187.306V133.083L189 132.288V128Z" fill="#00A0DF"/>
<path fill-rule="evenodd" clip-rule="evenodd" d="M160.348 184.712V189L162.042 188.999H165.429L165.432 187.303H162.042V183.917L160.348 184.712Z" fill="#00A0DF"/>
<path fill-rule="evenodd" clip-rule="evenodd" d="M167.742 178.682H171.132V182.068L172.826 181.273V176.985L171.132 176.986V176.986H167.745L167.742 178.682Z" fill="#00A0DF"/>
<path fill-rule="evenodd" clip-rule="evenodd" d="M176.985 184.712V189L178.679 188.999H182.066L182.068 187.303H178.679V183.917L176.985 184.712Z" fill="#00A0DF"/>
<path fill-rule="evenodd" clip-rule="evenodd" d="M187.306 176.986V176.986H183.919L183.917 178.682H187.306V182.068L189 181.273V176.985L187.306 176.986Z" fill="#00A0DF"/>
<path fill-rule="evenodd" clip-rule="evenodd" d="M165.432 171.129H162.042V167.742L160.348 168.537V172.826L162.042 172.824H165.429L165.432 171.129Z" fill="#00A0DF"/>
<path fill-rule="evenodd" clip-rule="evenodd" d="M167.742 162.045H171.132V165.432L172.826 164.637V160.348L171.132 160.35V160.35H167.745L167.742 162.045Z" fill="#00A0DF"/>
<path fill-rule="evenodd" clip-rule="evenodd" d="M182.068 171.129H178.679V167.742L176.985 168.537V172.826L178.679 172.824H182.066L182.068 171.129Z" fill="#00A0DF"/>
<path fill-rule="evenodd" clip-rule="evenodd" d="M187.306 160.35H183.919L183.917 162.045H187.306V165.432L189 164.637V160.348L187.306 160.35Z" fill="#00A0DF"/>
</g>
<g style="mix-blend-mode:hard-light">
<path fill-rule="evenodd" clip-rule="evenodd" d="M1366 164.363V168.652L1367.69 168.65H1371.08L1371.08 166.955H1367.69V163.568L1366 164.363Z" fill="#00A0DF"/>
<path fill-rule="evenodd" clip-rule="evenodd" d="M1373.39 158.333H1376.78V161.72L1378.48 160.925V156.636L1376.78 156.638H1373.4L1373.39 158.333Z" fill="#00A0DF"/>
<path fill-rule="evenodd" clip-rule="evenodd" d="M1387.72 166.955H1384.33V163.568L1382.64 164.363V168.652L1384.33 168.65V168.65H1387.72L1387.72 166.955Z" fill="#00A0DF"/>
<path fill-rule="evenodd" clip-rule="evenodd" d="M1389.57 158.333H1392.96V161.72L1394.65 160.925V156.636L1392.96 156.638H1389.57L1389.57 158.333Z" fill="#00A0DF"/>
<path fill-rule="evenodd" clip-rule="evenodd" d="M1366 148.189V152.477L1367.69 152.476H1371.08L1371.08 150.78H1367.69V147.394L1366 148.189Z" fill="#00A0DF"/>
<path fill-rule="evenodd" clip-rule="evenodd" d="M1378.48 140L1376.78 140.001V140.002H1373.4L1373.39 141.697H1376.78V145.083L1378.48 144.288V140Z" fill="#00A0DF"/>
<path fill-rule="evenodd" clip-rule="evenodd" d="M1387.72 150.78H1384.33V147.394L1382.64 148.189V152.477L1384.33 152.476V152.476H1387.72L1387.72 150.78Z" fill="#00A0DF"/>
<path fill-rule="evenodd" clip-rule="evenodd" d="M1394.65 140L1392.96 140.001V140.002H1389.57L1389.57 141.697H1392.96V145.083L1394.65 144.288V140Z" fill="#00A0DF"/>
<path fill-rule="evenodd" clip-rule="evenodd" d="M1366 196.712V201L1367.69 200.999H1371.08L1371.08 199.303H1367.69V195.917L1366 196.712Z" fill="#00A0DF"/>
<path fill-rule="evenodd" clip-rule="evenodd" d="M1373.39 190.682H1376.78V194.068L1378.48 193.273V188.985L1376.78 188.986V188.986H1373.4L1373.39 190.682Z" fill="#00A0DF"/>
<path fill-rule="evenodd" clip-rule="evenodd" d="M1382.64 196.712V201L1384.33 200.999H1387.72L1387.72 199.303H1384.33V195.917L1382.64 196.712Z" fill="#00A0DF"/>
<path fill-rule="evenodd" clip-rule="evenodd" d="M1389.57 190.682H1392.96V194.068L1394.65 193.273V188.985L1392.96 188.986V188.986H1389.57L1389.57 190.682Z" fill="#00A0DF"/>
<path fill-rule="evenodd" clip-rule="evenodd" d="M1366 180.537V184.826L1367.69 184.824H1371.08L1371.08 183.129H1367.69V179.742L1366 180.537Z" fill="#00A0DF"/>
<path fill-rule="evenodd" clip-rule="evenodd" d="M1373.39 174.045H1376.78V177.432L1378.48 176.637V172.348L1376.78 172.35V172.35H1373.4L1373.39 174.045Z" fill="#00A0DF"/>
<path fill-rule="evenodd" clip-rule="evenodd" d="M1387.72 183.129H1384.33V179.742L1382.64 180.537V184.826L1384.33 184.824H1387.72L1387.72 183.129Z" fill="#00A0DF"/>
<path fill-rule="evenodd" clip-rule="evenodd" d="M1389.57 174.045H1392.96V177.432L1394.65 176.637V172.348L1392.96 172.35V172.35H1389.57L1389.57 174.045Z" fill="#00A0DF"/>
<path fill-rule="evenodd" clip-rule="evenodd" d="M1403.43 166.955H1400.04V163.568L1398.35 164.363V168.652L1400.04 168.65V168.65H1403.43L1403.43 166.955Z" fill="#00A0DF"/>
<path fill-rule="evenodd" clip-rule="evenodd" d="M1405.74 158.333H1409.13V161.72L1410.83 160.925V156.636L1409.13 156.638H1405.74L1405.74 158.333Z" fill="#00A0DF"/>
<path fill-rule="evenodd" clip-rule="evenodd" d="M1420.07 166.955H1416.68V163.568L1414.98 164.363V168.652L1416.68 168.65V168.65H1420.07L1420.07 166.955Z" fill="#00A0DF"/>
<path fill-rule="evenodd" clip-rule="evenodd" d="M1425.31 156.638H1421.92L1421.92 158.333H1425.31V161.72L1427 160.925V156.636L1425.31 156.638Z" fill="#00A0DF"/>
<path fill-rule="evenodd" clip-rule="evenodd" d="M1403.43 150.78H1400.04V147.394L1398.35 148.189V152.477L1400.04 152.476V152.476H1403.43L1403.43 150.78Z" fill="#00A0DF"/>
<path fill-rule="evenodd" clip-rule="evenodd" d="M1410.83 140L1409.13 140.001V140.002H1405.74L1405.74 141.697H1409.13V145.083L1410.83 144.288V140Z" fill="#00A0DF"/>
<path fill-rule="evenodd" clip-rule="evenodd" d="M1420.07 150.78H1416.68V147.394L1414.98 148.189V152.477L1416.68 152.476V152.476H1420.07L1420.07 150.78Z" fill="#00A0DF"/>
<path fill-rule="evenodd" clip-rule="evenodd" d="M1427 140L1425.31 140.001V140.002H1421.92L1421.92 141.697H1425.31V145.083L1427 144.288V140Z" fill="#00A0DF"/>
<path fill-rule="evenodd" clip-rule="evenodd" d="M1398.35 196.712V201L1400.04 200.999H1403.43L1403.43 199.303H1400.04V195.917L1398.35 196.712Z" fill="#00A0DF"/>
<path fill-rule="evenodd" clip-rule="evenodd" d="M1405.74 190.682H1409.13V194.068L1410.83 193.273V188.985L1409.13 188.986V188.986H1405.74L1405.74 190.682Z" fill="#00A0DF"/>
<path fill-rule="evenodd" clip-rule="evenodd" d="M1414.98 196.712V201L1416.68 200.999H1420.07L1420.07 199.303H1416.68V195.917L1414.98 196.712Z" fill="#00A0DF"/>
<path fill-rule="evenodd" clip-rule="evenodd" d="M1425.31 188.986V188.986H1421.92L1421.92 190.682H1425.31V194.068L1427 193.273V188.985L1425.31 188.986Z" fill="#00A0DF"/>
<path fill-rule="evenodd" clip-rule="evenodd" d="M1403.43 183.129H1400.04V179.742L1398.35 180.537V184.826L1400.04 184.824H1403.43L1403.43 183.129Z" fill="#00A0DF"/>
<path fill-rule="evenodd" clip-rule="evenodd" d="M1405.74 174.045H1409.13V177.432L1410.83 176.637V172.348L1409.13 172.35V172.35H1405.74L1405.74 174.045Z" fill="#00A0DF"/>
<path fill-rule="evenodd" clip-rule="evenodd" d="M1420.07 183.129H1416.68V179.742L1414.98 180.537V184.826L1416.68 184.824H1420.07L1420.07 183.129Z" fill="#00A0DF"/>
<path fill-rule="evenodd" clip-rule="evenodd" d="M1425.31 172.35H1421.92L1421.92 174.045H1425.31V177.432L1427 176.637V172.348L1425.31 172.35Z" fill="#00A0DF"/>
</g>
<g style="mix-blend-mode:hard-light">
<path fill-rule="evenodd" clip-rule="evenodd" d="M1279 90.9455V97.2727L1281.5 97.2706H1286.5L1286.5 94.7695H1281.5V89.7727L1279 90.9455Z" fill="#00A0DF"/>
<path fill-rule="evenodd" clip-rule="evenodd" d="M1289.91 82.049H1294.91V87.0454L1297.41 85.8727V79.5454L1294.91 79.5475H1289.91L1289.91 82.049Z" fill="#00A0DF"/>
<path fill-rule="evenodd" clip-rule="evenodd" d="M1311.05 94.7692H1306.04V89.7727L1303.55 90.9455V97.2727L1306.04 97.2709V97.2706H1311.04L1311.05 94.7692Z" fill="#00A0DF"/>
<path fill-rule="evenodd" clip-rule="evenodd" d="M1313.77 82.049H1318.77V87.0454L1321.27 85.8727V79.5454L1318.77 79.5475H1313.78L1313.77 82.049Z" fill="#00A0DF"/>
<path fill-rule="evenodd" clip-rule="evenodd" d="M1279 67.0819V73.4091L1281.5 73.407H1286.5L1286.5 70.9056H1281.5V65.9091L1279 67.0819Z" fill="#00A0DF"/>
<path fill-rule="evenodd" clip-rule="evenodd" d="M1297.41 55L1294.91 55.0021V55.0024H1289.91L1289.91 57.5034H1294.91V62.5L1297.41 61.327V55Z" fill="#00A0DF"/>
<path fill-rule="evenodd" clip-rule="evenodd" d="M1311.05 70.9056H1306.04V65.9091L1303.55 67.0819V73.4091L1306.04 73.4073V73.407H1311.04L1311.05 70.9056Z" fill="#00A0DF"/>
<path fill-rule="evenodd" clip-rule="evenodd" d="M1321.27 55L1318.77 55.0021V55.0024H1313.78L1313.77 57.5034H1318.77V62.5L1321.27 61.327V55Z" fill="#00A0DF"/>
<path fill-rule="evenodd" clip-rule="evenodd" d="M1279 138.673V145L1281.5 144.998H1286.5L1286.5 142.497H1281.5V137.5L1279 138.673Z" fill="#00A0DF"/>
<path fill-rule="evenodd" clip-rule="evenodd" d="M1289.91 129.776H1294.91V134.773L1297.41 133.6V127.273L1294.91 127.275V127.275H1289.91L1289.91 129.776Z" fill="#00A0DF"/>
<path fill-rule="evenodd" clip-rule="evenodd" d="M1303.55 138.673V145L1306.04 144.998H1311.04L1311.05 142.497H1306.04V137.5L1303.55 138.673Z" fill="#00A0DF"/>
<path fill-rule="evenodd" clip-rule="evenodd" d="M1313.77 129.776H1318.77V134.773L1321.27 133.6V127.273L1318.77 127.275V127.275H1313.78L1313.77 129.776Z" fill="#00A0DF"/>
<path fill-rule="evenodd" clip-rule="evenodd" d="M1279 114.809V121.136L1281.5 121.134H1286.5L1286.5 118.633H1281.5V113.636L1279 114.809Z" fill="#00A0DF"/>
<path fill-rule="evenodd" clip-rule="evenodd" d="M1289.91 105.231H1294.91V110.227L1297.41 109.055V102.727L1294.91 102.729V102.729H1289.91L1289.91 105.231Z" fill="#00A0DF"/>
<path fill-rule="evenodd" clip-rule="evenodd" d="M1311.05 118.633H1306.04V113.636L1303.55 114.809V121.136L1306.04 121.134H1311.04L1311.05 118.633Z" fill="#00A0DF"/>
<path fill-rule="evenodd" clip-rule="evenodd" d="M1313.77 105.231H1318.77V110.227L1321.27 109.055V102.727L1318.77 102.729V102.729H1313.78L1313.77 105.231Z" fill="#00A0DF"/>
<path fill-rule="evenodd" clip-rule="evenodd" d="M1334.23 94.7692H1329.23V89.7727L1326.73 90.9455V97.2727L1329.23 97.2709V97.2706H1334.22L1334.23 94.7692Z" fill="#00A0DF"/>
<path fill-rule="evenodd" clip-rule="evenodd" d="M1337.64 82.049H1342.64V87.0454L1345.14 85.8727V79.5454L1342.64 79.5475H1337.64L1337.64 82.049Z" fill="#00A0DF"/>
<path fill-rule="evenodd" clip-rule="evenodd" d="M1358.77 94.7692H1353.77V89.7727L1351.27 90.9455V97.2727L1353.77 97.2709V97.2706H1358.77L1358.77 94.7692Z" fill="#00A0DF"/>
<path fill-rule="evenodd" clip-rule="evenodd" d="M1366.5 79.5475H1361.5L1361.5 82.0491H1366.5V87.0454L1369 85.8725V79.5454L1366.5 79.5475Z" fill="#00A0DF"/>
<path fill-rule="evenodd" clip-rule="evenodd" d="M1334.23 70.9056H1329.23V65.9091L1326.73 67.0819V73.4091L1329.23 73.4073V73.407H1334.22L1334.23 70.9056Z" fill="#00A0DF"/>
<path fill-rule="evenodd" clip-rule="evenodd" d="M1345.14 55L1342.64 55.0021V55.0024H1337.64L1337.64 57.5034H1342.64V62.5L1345.14 61.327V55Z" fill="#00A0DF"/>
<path fill-rule="evenodd" clip-rule="evenodd" d="M1358.77 70.9056H1353.77V65.9091L1351.27 67.0819V73.4091L1353.77 73.4073V73.407H1358.77L1358.77 70.9056Z" fill="#00A0DF"/>
<path fill-rule="evenodd" clip-rule="evenodd" d="M1369 55L1366.5 55.0021V55.0024H1361.5L1361.5 57.5034H1366.5V62.5L1369 61.327V55Z" fill="#00A0DF"/>
<path fill-rule="evenodd" clip-rule="evenodd" d="M1326.73 138.673V145L1329.23 144.998H1334.22L1334.23 142.497H1329.23V137.5L1326.73 138.673Z" fill="#00A0DF"/>
<path fill-rule="evenodd" clip-rule="evenodd" d="M1337.64 129.776H1342.64V134.773L1345.14 133.6V127.273L1342.64 127.275V127.275H1337.64L1337.64 129.776Z" fill="#00A0DF"/>
<path fill-rule="evenodd" clip-rule="evenodd" d="M1351.27 138.673V145L1353.77 144.998H1358.77L1358.77 142.497H1353.77V137.5L1351.27 138.673Z" fill="#00A0DF"/>
<path fill-rule="evenodd" clip-rule="evenodd" d="M1366.5 127.275V127.275H1361.5L1361.5 129.776H1366.5V134.773L1369 133.6V127.273L1366.5 127.275Z" fill="#00A0DF"/>
<path fill-rule="evenodd" clip-rule="evenodd" d="M1334.23 118.633H1329.23V113.636L1326.73 114.809V121.136L1329.23 121.134H1334.22L1334.23 118.633Z" fill="#00A0DF"/>
<path fill-rule="evenodd" clip-rule="evenodd" d="M1337.64 105.231H1342.64V110.227L1345.14 109.055V102.727L1342.64 102.729V102.729H1337.64L1337.64 105.231Z" fill="#00A0DF"/>
<path fill-rule="evenodd" clip-rule="evenodd" d="M1358.77 118.633H1353.77V113.636L1351.27 114.809V121.136L1353.77 121.134H1358.77L1358.77 118.633Z" fill="#00A0DF"/>
<path fill-rule="evenodd" clip-rule="evenodd" d="M1366.5 102.729H1361.5L1361.5 105.231H1366.5V110.227L1369 109.054V102.727L1366.5 102.729Z" fill="#00A0DF"/>
</g>
</g>
<defs>
<clipPath id="clip0">
<rect width="1453" height="852" fill="white" transform="translate(-7 -369)"/>
</clipPath>
</defs>
</svg>
